<mxfile host="Electron" agent="Mozilla/5.0 (Windows NT 10.0; Win64; x64) AppleWebKit/537.36 (KHTML, like Gecko) draw.io/24.7.5 Chrome/126.0.6478.183 Electron/31.3.0 Safari/537.36" version="24.7.5" pages="7">
  <diagram name="As-Is" id="SknND1rXw5hkotcNJON6">
    <mxGraphModel dx="1991" dy="641" grid="1" gridSize="10" guides="1" tooltips="1" connect="1" arrows="1" fold="1" page="1" pageScale="1" pageWidth="850" pageHeight="1100" background="none" math="0" shadow="0">
      <root>
        <mxCell id="0" />
        <mxCell id="1" parent="0" />
        <mxCell id="9ElLSudVEEpNBDkhUwbm-10" style="edgeStyle=orthogonalEdgeStyle;rounded=0;orthogonalLoop=1;jettySize=auto;html=1;exitX=1;exitY=0.5;exitDx=0;exitDy=0;entryX=0;entryY=0;entryDx=0;entryDy=0;" parent="1" source="C1f89hlobK2wMmNsNncD-1" edge="1">
          <mxGeometry relative="1" as="geometry">
            <Array as="points">
              <mxPoint x="-250" y="250" />
              <mxPoint x="-250" y="250" />
            </Array>
            <mxPoint x="-200" y="250" as="targetPoint" />
          </mxGeometry>
        </mxCell>
        <mxCell id="C1f89hlobK2wMmNsNncD-1" value="Start" style="ellipse;whiteSpace=wrap;html=1;aspect=fixed;fontStyle=1;fillColor=#fff2cc;strokeColor=#d6b656;fontColor=#000000;" parent="1" vertex="1">
          <mxGeometry x="-340" y="210" width="80" height="80" as="geometry" />
        </mxCell>
        <mxCell id="2KSLQp3A24Fqxk6WuDm9-11" style="edgeStyle=orthogonalEdgeStyle;rounded=0;orthogonalLoop=1;jettySize=auto;html=1;exitX=1;exitY=0;exitDx=0;exitDy=0;entryX=0;entryY=0.5;entryDx=0;entryDy=0;" parent="1" edge="1">
          <mxGeometry relative="1" as="geometry">
            <Array as="points">
              <mxPoint x="-60" y="250" />
              <mxPoint x="-60" y="250" />
            </Array>
            <mxPoint x="-80" y="250" as="sourcePoint" />
            <mxPoint x="-19.999999999999773" y="250" as="targetPoint" />
          </mxGeometry>
        </mxCell>
        <UserObject label="Init Applications" link="data:page/id,LwB7HcUF0HROy8n9pEqa" id="8ydl046XqRPaQTKRaTC7-1">
          <mxCell style="shape=process;whiteSpace=wrap;html=1;backgroundOutline=1;fillColor=#dae8fc;strokeColor=#6c8ebf;fontStyle=1;fontColor=#000000;" vertex="1" parent="1">
            <mxGeometry x="-200" y="221" width="120" height="60" as="geometry" />
          </mxCell>
        </UserObject>
        <mxCell id="Zo3tIEZcoW6UAk4bU849-6" style="edgeStyle=orthogonalEdgeStyle;rounded=0;orthogonalLoop=1;jettySize=auto;html=1;exitX=1;exitY=0.5;exitDx=0;exitDy=0;entryX=0;entryY=0.5;entryDx=0;entryDy=0;" edge="1" parent="1" source="Zo3tIEZcoW6UAk4bU849-2" target="Zo3tIEZcoW6UAk4bU849-5">
          <mxGeometry relative="1" as="geometry" />
        </mxCell>
        <UserObject label="Process Films" link="data:page/id,Sjrkgw-OYX05BXaxYlKY" id="Zo3tIEZcoW6UAk4bU849-2">
          <mxCell style="shape=process;whiteSpace=wrap;html=1;backgroundOutline=1;fillColor=#dae8fc;strokeColor=#6c8ebf;fontStyle=1;fontColor=#000000;" vertex="1" parent="1">
            <mxGeometry x="-20" y="221" width="120" height="60" as="geometry" />
          </mxCell>
        </UserObject>
        <mxCell id="Zo3tIEZcoW6UAk4bU849-8" style="edgeStyle=orthogonalEdgeStyle;rounded=0;orthogonalLoop=1;jettySize=auto;html=1;exitX=1;exitY=0.5;exitDx=0;exitDy=0;entryX=0;entryY=0.5;entryDx=0;entryDy=0;" edge="1" parent="1" source="Zo3tIEZcoW6UAk4bU849-5" target="Zo3tIEZcoW6UAk4bU849-7">
          <mxGeometry relative="1" as="geometry" />
        </mxCell>
        <UserObject label="Close Applications" link="data:page/id,_5FLUUACHcX5O0gPH6xb" id="Zo3tIEZcoW6UAk4bU849-5">
          <mxCell style="shape=process;whiteSpace=wrap;html=1;backgroundOutline=1;fillColor=#dae8fc;strokeColor=#6c8ebf;fontStyle=1;fontColor=#000000;" vertex="1" parent="1">
            <mxGeometry x="175" y="221" width="120" height="60" as="geometry" />
          </mxCell>
        </UserObject>
        <mxCell id="Zo3tIEZcoW6UAk4bU849-7" value="End" style="ellipse;whiteSpace=wrap;html=1;aspect=fixed;fillColor=#fff2cc;strokeColor=#d6b656;fontStyle=1;fontColor=#000000;" vertex="1" parent="1">
          <mxGeometry x="360" y="211" width="80" height="80" as="geometry" />
        </mxCell>
      </root>
    </mxGraphModel>
  </diagram>
  <diagram id="LwB7HcUF0HROy8n9pEqa" name="InitApplications">
    <mxGraphModel dx="1644" dy="528" grid="1" gridSize="10" guides="1" tooltips="1" connect="1" arrows="1" fold="1" page="1" pageScale="1" pageWidth="850" pageHeight="1100" math="0" shadow="0">
      <root>
        <mxCell id="0" />
        <mxCell id="1" parent="0" />
        <mxCell id="sDQL6Q-TdXhi4aX0Mo0k-1" style="edgeStyle=orthogonalEdgeStyle;rounded=0;orthogonalLoop=1;jettySize=auto;html=1;exitX=1;exitY=0.5;exitDx=0;exitDy=0;entryX=0;entryY=0;entryDx=0;entryDy=0;" parent="1" source="sDQL6Q-TdXhi4aX0Mo0k-2" target="sDQL6Q-TdXhi4aX0Mo0k-31" edge="1">
          <mxGeometry relative="1" as="geometry">
            <Array as="points">
              <mxPoint x="-250" y="250" />
              <mxPoint x="-250" y="250" />
            </Array>
          </mxGeometry>
        </mxCell>
        <mxCell id="sDQL6Q-TdXhi4aX0Mo0k-2" value="Start" style="ellipse;whiteSpace=wrap;html=1;aspect=fixed;fontStyle=1;fillColor=#fff2cc;strokeColor=#d6b656;fontColor=#000000;" parent="1" vertex="1">
          <mxGeometry x="-340" y="210" width="80" height="80" as="geometry" />
        </mxCell>
        <mxCell id="sDQL6Q-TdXhi4aX0Mo0k-3" style="edgeStyle=orthogonalEdgeStyle;rounded=0;orthogonalLoop=1;jettySize=auto;html=1;exitX=1;exitY=0;exitDx=0;exitDy=0;entryX=0;entryY=1;entryDx=0;entryDy=0;" parent="1" source="sDQL6Q-TdXhi4aX0Mo0k-4" target="sDQL6Q-TdXhi4aX0Mo0k-8" edge="1">
          <mxGeometry relative="1" as="geometry">
            <Array as="points">
              <mxPoint x="300" y="250" />
              <mxPoint x="300" y="250" />
            </Array>
          </mxGeometry>
        </mxCell>
        <mxCell id="sDQL6Q-TdXhi4aX0Mo0k-4" value="Open Google" style="rounded=0;whiteSpace=wrap;html=1;fillColor=#dae8fc;strokeColor=#6c8ebf;fontStyle=1;fontColor=#000000;" parent="1" vertex="1">
          <mxGeometry x="160" y="250" width="120" height="60" as="geometry" />
        </mxCell>
        <mxCell id="sDQL6Q-TdXhi4aX0Mo0k-5" value="Google" style="rounded=0;whiteSpace=wrap;html=1;strokeColor=#0e8088;fontStyle=1;fillColor=#b0e3e6;fontColor=#000000;" parent="1" vertex="1">
          <mxGeometry x="160" y="210" width="120" height="40" as="geometry" />
        </mxCell>
        <mxCell id="sDQL6Q-TdXhi4aX0Mo0k-6" style="edgeStyle=orthogonalEdgeStyle;rounded=0;orthogonalLoop=1;jettySize=auto;html=1;exitX=1;exitY=0;exitDx=0;exitDy=0;entryX=0;entryY=0;entryDx=0;entryDy=0;" parent="1" source="sDQL6Q-TdXhi4aX0Mo0k-7" edge="1">
          <mxGeometry relative="1" as="geometry">
            <mxPoint x="520" y="250" as="targetPoint" />
            <Array as="points">
              <mxPoint x="490" y="250" />
              <mxPoint x="490" y="250" />
            </Array>
          </mxGeometry>
        </mxCell>
        <mxCell id="sDQL6Q-TdXhi4aX0Mo0k-7" value="Click on search box" style="rounded=0;whiteSpace=wrap;html=1;fillColor=#dae8fc;strokeColor=#6c8ebf;fontStyle=1;fontColor=#000000;" parent="1" vertex="1">
          <mxGeometry x="340" y="250" width="120" height="60" as="geometry" />
        </mxCell>
        <mxCell id="sDQL6Q-TdXhi4aX0Mo0k-8" value="Google" style="rounded=0;whiteSpace=wrap;html=1;strokeColor=#0e8088;fontStyle=1;fillColor=#b0e3e6;fontColor=#000000;" parent="1" vertex="1">
          <mxGeometry x="340" y="210" width="120" height="40" as="geometry" />
        </mxCell>
        <mxCell id="sDQL6Q-TdXhi4aX0Mo0k-11" style="edgeStyle=orthogonalEdgeStyle;rounded=0;orthogonalLoop=1;jettySize=auto;html=1;exitX=1;exitY=0;exitDx=0;exitDy=0;entryX=0;entryY=1;entryDx=0;entryDy=0;" parent="1" source="sDQL6Q-TdXhi4aX0Mo0k-12" target="sDQL6Q-TdXhi4aX0Mo0k-23" edge="1">
          <mxGeometry relative="1" as="geometry">
            <Array as="points">
              <mxPoint x="680" y="250" />
              <mxPoint x="680" y="250" />
            </Array>
          </mxGeometry>
        </mxCell>
        <mxCell id="sDQL6Q-TdXhi4aX0Mo0k-12" value="Type into search box the IMDb website" style="rounded=0;whiteSpace=wrap;html=1;fillColor=#dae8fc;strokeColor=#6c8ebf;fontStyle=1;fontColor=#000000;" parent="1" vertex="1">
          <mxGeometry x="520" y="250" width="140" height="60" as="geometry" />
        </mxCell>
        <mxCell id="sDQL6Q-TdXhi4aX0Mo0k-13" value="Google" style="rounded=0;whiteSpace=wrap;html=1;strokeColor=#0e8088;fontStyle=1;fillColor=#b0e3e6;fontColor=#000000;" parent="1" vertex="1">
          <mxGeometry x="520" y="210" width="140" height="40" as="geometry" />
        </mxCell>
        <mxCell id="sDQL6Q-TdXhi4aX0Mo0k-18" style="edgeStyle=orthogonalEdgeStyle;rounded=0;orthogonalLoop=1;jettySize=auto;html=1;exitX=1;exitY=0;exitDx=0;exitDy=0;entryX=0;entryY=0.5;entryDx=0;entryDy=0;" parent="1" source="sDQL6Q-TdXhi4aX0Mo0k-19" target="ZbNijBDRVIhACsG9PN0N-4" edge="1">
          <mxGeometry relative="1" as="geometry">
            <Array as="points">
              <mxPoint x="1080" y="250" />
              <mxPoint x="1080" y="250" />
            </Array>
            <mxPoint x="1120" y="249.9999999999999" as="targetPoint" />
          </mxGeometry>
        </mxCell>
        <mxCell id="sDQL6Q-TdXhi4aX0Mo0k-19" value="Open IMDb" style="rounded=0;whiteSpace=wrap;html=1;fillColor=#dae8fc;strokeColor=#6c8ebf;fontStyle=1;fontColor=#000000;" parent="1" vertex="1">
          <mxGeometry x="940" y="250" width="120" height="60" as="geometry" />
        </mxCell>
        <mxCell id="sDQL6Q-TdXhi4aX0Mo0k-20" value="IMDb" style="rounded=0;whiteSpace=wrap;html=1;strokeColor=#0e8088;fontStyle=1;fillColor=#b0e3e6;fontColor=#000000;" parent="1" vertex="1">
          <mxGeometry x="940" y="210" width="120" height="40" as="geometry" />
        </mxCell>
        <mxCell id="sDQL6Q-TdXhi4aX0Mo0k-21" value="Click enter" style="rounded=0;whiteSpace=wrap;html=1;fillColor=#dae8fc;strokeColor=#6c8ebf;fontStyle=1;fontColor=#000000;" parent="1" vertex="1">
          <mxGeometry x="730" y="250" width="120" height="60" as="geometry" />
        </mxCell>
        <mxCell id="sDQL6Q-TdXhi4aX0Mo0k-22" style="edgeStyle=orthogonalEdgeStyle;rounded=0;orthogonalLoop=1;jettySize=auto;html=1;exitX=1;exitY=1;exitDx=0;exitDy=0;entryX=0;entryY=1;entryDx=0;entryDy=0;" parent="1" source="sDQL6Q-TdXhi4aX0Mo0k-23" target="sDQL6Q-TdXhi4aX0Mo0k-20" edge="1">
          <mxGeometry relative="1" as="geometry">
            <Array as="points">
              <mxPoint x="900" y="250" />
              <mxPoint x="900" y="250" />
            </Array>
          </mxGeometry>
        </mxCell>
        <mxCell id="sDQL6Q-TdXhi4aX0Mo0k-23" value="Google" style="rounded=0;whiteSpace=wrap;html=1;strokeColor=#0e8088;fontStyle=1;fillColor=#b0e3e6;fontColor=#000000;" parent="1" vertex="1">
          <mxGeometry x="730" y="210" width="120" height="40" as="geometry" />
        </mxCell>
        <mxCell id="sDQL6Q-TdXhi4aX0Mo0k-27" value="Create Output Excel" style="rounded=0;whiteSpace=wrap;html=1;fillColor=#dae8fc;strokeColor=#6c8ebf;fontStyle=1;fontColor=#000000;" parent="1" vertex="1">
          <mxGeometry x="-20" y="250" width="120" height="60" as="geometry" />
        </mxCell>
        <mxCell id="sDQL6Q-TdXhi4aX0Mo0k-28" style="edgeStyle=orthogonalEdgeStyle;rounded=0;orthogonalLoop=1;jettySize=auto;html=1;exitX=1;exitY=1;exitDx=0;exitDy=0;entryX=0;entryY=0;entryDx=0;entryDy=0;" parent="1" source="sDQL6Q-TdXhi4aX0Mo0k-29" target="sDQL6Q-TdXhi4aX0Mo0k-4" edge="1">
          <mxGeometry relative="1" as="geometry">
            <Array as="points">
              <mxPoint x="120" y="250" />
              <mxPoint x="120" y="250" />
            </Array>
          </mxGeometry>
        </mxCell>
        <mxCell id="sDQL6Q-TdXhi4aX0Mo0k-29" value="Excel" style="rounded=0;whiteSpace=wrap;html=1;strokeColor=#0e8088;fontStyle=1;fillColor=#b0e3e6;fontColor=#000000;" parent="1" vertex="1">
          <mxGeometry x="-20" y="210" width="120" height="40" as="geometry" />
        </mxCell>
        <mxCell id="sDQL6Q-TdXhi4aX0Mo0k-30" style="edgeStyle=orthogonalEdgeStyle;rounded=0;orthogonalLoop=1;jettySize=auto;html=1;exitX=1;exitY=0;exitDx=0;exitDy=0;entryX=0;entryY=0;entryDx=0;entryDy=0;" parent="1" source="sDQL6Q-TdXhi4aX0Mo0k-31" target="sDQL6Q-TdXhi4aX0Mo0k-27" edge="1">
          <mxGeometry relative="1" as="geometry">
            <Array as="points">
              <mxPoint x="-40" y="250" />
              <mxPoint x="-40" y="250" />
            </Array>
          </mxGeometry>
        </mxCell>
        <mxCell id="sDQL6Q-TdXhi4aX0Mo0k-31" value="Open Excel" style="rounded=0;whiteSpace=wrap;html=1;fillColor=#dae8fc;strokeColor=#6c8ebf;fontStyle=1;fontColor=#000000;" parent="1" vertex="1">
          <mxGeometry x="-200" y="250" width="120" height="60" as="geometry" />
        </mxCell>
        <mxCell id="sDQL6Q-TdXhi4aX0Mo0k-32" value="Excel" style="rounded=0;whiteSpace=wrap;html=1;strokeColor=#0e8088;fontStyle=1;fillColor=#b0e3e6;fontColor=#000000;" parent="1" vertex="1">
          <mxGeometry x="-200" y="210" width="120" height="40" as="geometry" />
        </mxCell>
        <mxCell id="lOI_ohq3HviMO__83IP9-1" value="End" style="ellipse;whiteSpace=wrap;html=1;aspect=fixed;fillColor=#fff2cc;strokeColor=#d6b656;fontStyle=1;fontColor=#000000;" parent="1" vertex="1">
          <mxGeometry x="1310" y="210" width="80" height="80" as="geometry" />
        </mxCell>
        <mxCell id="ZbNijBDRVIhACsG9PN0N-1" style="edgeStyle=orthogonalEdgeStyle;rounded=0;orthogonalLoop=1;jettySize=auto;html=1;exitX=0.5;exitY=1;exitDx=0;exitDy=0;" parent="1" source="ZbNijBDRVIhACsG9PN0N-4" target="ZbNijBDRVIhACsG9PN0N-5" edge="1">
          <mxGeometry relative="1" as="geometry" />
        </mxCell>
        <mxCell id="ZbNijBDRVIhACsG9PN0N-2" value="No" style="edgeLabel;html=1;align=center;verticalAlign=middle;resizable=0;points=[];" parent="ZbNijBDRVIhACsG9PN0N-1" vertex="1" connectable="0">
          <mxGeometry x="-0.0162" y="-2" relative="1" as="geometry">
            <mxPoint x="2" y="-4" as="offset" />
          </mxGeometry>
        </mxCell>
        <mxCell id="ZbNijBDRVIhACsG9PN0N-8" style="edgeStyle=orthogonalEdgeStyle;rounded=0;orthogonalLoop=1;jettySize=auto;html=1;exitX=1;exitY=0.5;exitDx=0;exitDy=0;entryX=0;entryY=0.5;entryDx=0;entryDy=0;" parent="1" source="ZbNijBDRVIhACsG9PN0N-4" target="lOI_ohq3HviMO__83IP9-1" edge="1">
          <mxGeometry relative="1" as="geometry" />
        </mxCell>
        <mxCell id="ZbNijBDRVIhACsG9PN0N-11" value="Yes" style="edgeLabel;html=1;align=center;verticalAlign=middle;resizable=0;points=[];" parent="ZbNijBDRVIhACsG9PN0N-8" vertex="1" connectable="0">
          <mxGeometry x="-0.1112" relative="1" as="geometry">
            <mxPoint as="offset" />
          </mxGeometry>
        </mxCell>
        <mxCell id="ZbNijBDRVIhACsG9PN0N-4" value="Am I signed in?" style="rhombus;whiteSpace=wrap;html=1;fillColor=#ffe6cc;strokeColor=#d79b00;fontStyle=1;fontColor=#000000;" parent="1" vertex="1">
          <mxGeometry x="1125" y="200" width="90" height="100" as="geometry" />
        </mxCell>
        <mxCell id="ZbNijBDRVIhACsG9PN0N-12" style="edgeStyle=orthogonalEdgeStyle;rounded=0;orthogonalLoop=1;jettySize=auto;html=1;exitX=1;exitY=0.5;exitDx=0;exitDy=0;entryX=0.5;entryY=1;entryDx=0;entryDy=0;" parent="1" source="ZbNijBDRVIhACsG9PN0N-5" target="lOI_ohq3HviMO__83IP9-1" edge="1">
          <mxGeometry relative="1" as="geometry" />
        </mxCell>
        <UserObject label="Sign In" link="data:page/id,io4jKyCieL3uUzyQDNGK" id="ZbNijBDRVIhACsG9PN0N-5">
          <mxCell style="shape=process;whiteSpace=wrap;html=1;backgroundOutline=1;fillColor=#dae8fc;strokeColor=#6c8ebf;fontStyle=1;fontColor=#000000;" parent="1" vertex="1">
            <mxGeometry x="1110" y="370" width="120" height="60" as="geometry" />
          </mxCell>
        </UserObject>
        <mxCell id="ZbNijBDRVIhACsG9PN0N-14" value="Input: IMDbWebsite" style="rounded=0;whiteSpace=wrap;html=1;fillColor=#d5e8d4;strokeColor=#82b366;fontStyle=1;fontColor=#000000;" parent="1" vertex="1">
          <mxGeometry x="520" y="310" width="140" height="40" as="geometry" />
        </mxCell>
      </root>
    </mxGraphModel>
  </diagram>
  <diagram id="io4jKyCieL3uUzyQDNGK" name="SignIn">
    <mxGraphModel dx="224" dy="604" grid="1" gridSize="10" guides="1" tooltips="1" connect="1" arrows="1" fold="1" page="1" pageScale="1" pageWidth="850" pageHeight="1100" math="0" shadow="0">
      <root>
        <mxCell id="0" />
        <mxCell id="1" parent="0" />
        <UserObject label="Click on &quot;Sign In&quot;" link="data:page/id,io4jKyCieL3uUzyQDNGK" id="eJt15a9cdMCVB7cgwlqj-1">
          <mxCell style="rounded=0;whiteSpace=wrap;html=1;fillColor=#dae8fc;strokeColor=#6c8ebf;fontStyle=1;fontColor=#000000;" vertex="1" parent="1">
            <mxGeometry x="1105" y="470" width="120" height="60" as="geometry" />
          </mxCell>
        </UserObject>
        <mxCell id="eJt15a9cdMCVB7cgwlqj-2" style="edgeStyle=orthogonalEdgeStyle;rounded=0;orthogonalLoop=1;jettySize=auto;html=1;exitX=1;exitY=1;exitDx=0;exitDy=0;entryX=0;entryY=1;entryDx=0;entryDy=0;" edge="1" parent="1" source="eJt15a9cdMCVB7cgwlqj-3" target="eJt15a9cdMCVB7cgwlqj-6">
          <mxGeometry relative="1" as="geometry">
            <Array as="points">
              <mxPoint x="1270" y="470" />
              <mxPoint x="1270" y="470" />
            </Array>
          </mxGeometry>
        </mxCell>
        <mxCell id="eJt15a9cdMCVB7cgwlqj-3" value="IMDb" style="rounded=0;whiteSpace=wrap;html=1;strokeColor=#0e8088;fontStyle=1;fillColor=#b0e3e6;fontColor=#000000;" vertex="1" parent="1">
          <mxGeometry x="1105" y="430" width="120" height="40" as="geometry" />
        </mxCell>
        <mxCell id="eJt15a9cdMCVB7cgwlqj-4" value="Click on &quot;Sign in with IMDb&quot;" style="rounded=0;whiteSpace=wrap;html=1;fillColor=#dae8fc;strokeColor=#6c8ebf;fontStyle=1;fontColor=#000000;" vertex="1" parent="1">
          <mxGeometry x="1300" y="470" width="120" height="60" as="geometry" />
        </mxCell>
        <mxCell id="eJt15a9cdMCVB7cgwlqj-5" style="edgeStyle=orthogonalEdgeStyle;rounded=0;orthogonalLoop=1;jettySize=auto;html=1;exitX=1;exitY=1;exitDx=0;exitDy=0;entryX=0;entryY=0;entryDx=0;entryDy=0;" edge="1" parent="1" source="eJt15a9cdMCVB7cgwlqj-6" target="eJt15a9cdMCVB7cgwlqj-7">
          <mxGeometry relative="1" as="geometry">
            <Array as="points">
              <mxPoint x="1440" y="470" />
              <mxPoint x="1440" y="470" />
            </Array>
          </mxGeometry>
        </mxCell>
        <mxCell id="eJt15a9cdMCVB7cgwlqj-6" value="IMDb" style="rounded=0;whiteSpace=wrap;html=1;strokeColor=#0e8088;fontStyle=1;fillColor=#b0e3e6;fontColor=#000000;" vertex="1" parent="1">
          <mxGeometry x="1300" y="430" width="120" height="40" as="geometry" />
        </mxCell>
        <mxCell id="eJt15a9cdMCVB7cgwlqj-7" value="Enter email or mobile phone number" style="rounded=0;whiteSpace=wrap;html=1;fillColor=#dae8fc;strokeColor=#6c8ebf;fontStyle=1;fontColor=#000000;" vertex="1" parent="1">
          <mxGeometry x="1493" y="470" width="120" height="60" as="geometry" />
        </mxCell>
        <mxCell id="eJt15a9cdMCVB7cgwlqj-8" style="edgeStyle=orthogonalEdgeStyle;rounded=0;orthogonalLoop=1;jettySize=auto;html=1;exitX=1;exitY=1;exitDx=0;exitDy=0;entryX=0;entryY=0;entryDx=0;entryDy=0;" edge="1" parent="1" source="eJt15a9cdMCVB7cgwlqj-9" target="eJt15a9cdMCVB7cgwlqj-10">
          <mxGeometry relative="1" as="geometry">
            <Array as="points">
              <mxPoint x="1630" y="470" />
              <mxPoint x="1630" y="470" />
            </Array>
          </mxGeometry>
        </mxCell>
        <mxCell id="eJt15a9cdMCVB7cgwlqj-9" value="IMDb" style="rounded=0;whiteSpace=wrap;html=1;strokeColor=#0e8088;fontStyle=1;fillColor=#b0e3e6;fontColor=#000000;" vertex="1" parent="1">
          <mxGeometry x="1493" y="430" width="120" height="40" as="geometry" />
        </mxCell>
        <mxCell id="eJt15a9cdMCVB7cgwlqj-10" value="Enter password" style="rounded=0;whiteSpace=wrap;html=1;fillColor=#dae8fc;strokeColor=#6c8ebf;fontStyle=1;fontColor=#000000;" vertex="1" parent="1">
          <mxGeometry x="1680" y="470" width="120" height="60" as="geometry" />
        </mxCell>
        <mxCell id="eJt15a9cdMCVB7cgwlqj-11" style="edgeStyle=orthogonalEdgeStyle;rounded=0;orthogonalLoop=1;jettySize=auto;html=1;exitX=1;exitY=1;exitDx=0;exitDy=0;entryX=0;entryY=1;entryDx=0;entryDy=0;" edge="1" parent="1" source="eJt15a9cdMCVB7cgwlqj-12" target="eJt15a9cdMCVB7cgwlqj-14">
          <mxGeometry relative="1" as="geometry">
            <Array as="points">
              <mxPoint x="1830" y="470" />
              <mxPoint x="1830" y="470" />
            </Array>
          </mxGeometry>
        </mxCell>
        <mxCell id="eJt15a9cdMCVB7cgwlqj-12" value="IMDb" style="rounded=0;whiteSpace=wrap;html=1;strokeColor=#0e8088;fontStyle=1;fillColor=#b0e3e6;fontColor=#000000;" vertex="1" parent="1">
          <mxGeometry x="1680" y="430" width="120" height="40" as="geometry" />
        </mxCell>
        <mxCell id="eJt15a9cdMCVB7cgwlqj-13" value="Click on &quot;Sign In&quot; button" style="rounded=0;whiteSpace=wrap;html=1;fillColor=#dae8fc;strokeColor=#6c8ebf;fontStyle=1;fontColor=#000000;" vertex="1" parent="1">
          <mxGeometry x="1870" y="470" width="120" height="60" as="geometry" />
        </mxCell>
        <mxCell id="TOC96B8FzItAlg2Pvoz1-4" style="edgeStyle=orthogonalEdgeStyle;rounded=0;orthogonalLoop=1;jettySize=auto;html=1;exitX=1;exitY=1;exitDx=0;exitDy=0;entryX=0;entryY=0.5;entryDx=0;entryDy=0;" edge="1" parent="1" source="eJt15a9cdMCVB7cgwlqj-14" target="TOC96B8FzItAlg2Pvoz1-3">
          <mxGeometry relative="1" as="geometry">
            <Array as="points">
              <mxPoint x="2010" y="470" />
              <mxPoint x="2010" y="470" />
            </Array>
          </mxGeometry>
        </mxCell>
        <mxCell id="eJt15a9cdMCVB7cgwlqj-14" value="IMDb" style="rounded=0;whiteSpace=wrap;html=1;strokeColor=#0e8088;fontStyle=1;fillColor=#b0e3e6;fontColor=#000000;" vertex="1" parent="1">
          <mxGeometry x="1870" y="430" width="120" height="40" as="geometry" />
        </mxCell>
        <mxCell id="TOC96B8FzItAlg2Pvoz1-2" style="edgeStyle=orthogonalEdgeStyle;rounded=0;orthogonalLoop=1;jettySize=auto;html=1;exitX=1;exitY=0.5;exitDx=0;exitDy=0;entryX=0;entryY=1;entryDx=0;entryDy=0;" edge="1" parent="1" source="TOC96B8FzItAlg2Pvoz1-1" target="eJt15a9cdMCVB7cgwlqj-3">
          <mxGeometry relative="1" as="geometry">
            <Array as="points">
              <mxPoint x="1080" y="470" />
              <mxPoint x="1080" y="470" />
            </Array>
          </mxGeometry>
        </mxCell>
        <mxCell id="TOC96B8FzItAlg2Pvoz1-1" value="Start" style="ellipse;whiteSpace=wrap;html=1;aspect=fixed;fontStyle=1;fillColor=#fff2cc;strokeColor=#d6b656;fontColor=#000000;" vertex="1" parent="1">
          <mxGeometry x="950" y="430" width="80" height="80" as="geometry" />
        </mxCell>
        <mxCell id="TOC96B8FzItAlg2Pvoz1-3" value="End" style="ellipse;whiteSpace=wrap;html=1;aspect=fixed;fillColor=#fff2cc;strokeColor=#d6b656;fontStyle=1;fontColor=#000000;" vertex="1" parent="1">
          <mxGeometry x="2070" y="430" width="80" height="80" as="geometry" />
        </mxCell>
        <mxCell id="MCpoZle6zYHcxViE-_43-2" value="Input: EmailAdress" style="rounded=0;whiteSpace=wrap;html=1;fillColor=#d5e8d4;strokeColor=#82b366;fontStyle=1;fontColor=#000000;" vertex="1" parent="1">
          <mxGeometry x="1493" y="530" width="120" height="40" as="geometry" />
        </mxCell>
        <mxCell id="MCpoZle6zYHcxViE-_43-4" value="Input: Password" style="rounded=0;whiteSpace=wrap;html=1;fillColor=#d5e8d4;strokeColor=#82b366;fontStyle=1;fontColor=#000000;" vertex="1" parent="1">
          <mxGeometry x="1680" y="530" width="120" height="40" as="geometry" />
        </mxCell>
      </root>
    </mxGraphModel>
  </diagram>
  <diagram id="Sjrkgw-OYX05BXaxYlKY" name="ProcessFilms">
    <mxGraphModel dx="594" dy="960" grid="1" gridSize="10" guides="1" tooltips="1" connect="1" arrows="1" fold="1" page="1" pageScale="1" pageWidth="850" pageHeight="1100" math="0" shadow="0">
      <root>
        <mxCell id="0" />
        <mxCell id="1" parent="0" />
        <mxCell id="VP45HoDdZ3DlmeeXuL-M-2" style="edgeStyle=orthogonalEdgeStyle;rounded=0;orthogonalLoop=1;jettySize=auto;html=1;exitX=1;exitY=1;exitDx=0;exitDy=0;entryX=0;entryY=0;entryDx=0;entryDy=0;" parent="1" edge="1">
          <mxGeometry relative="1" as="geometry">
            <Array as="points">
              <mxPoint x="1700" y="250" />
              <mxPoint x="1700" y="250" />
            </Array>
            <mxPoint x="1640" y="250" as="sourcePoint" />
            <mxPoint x="1720" y="250" as="targetPoint" />
          </mxGeometry>
        </mxCell>
        <mxCell id="VP45HoDdZ3DlmeeXuL-M-7" style="edgeStyle=orthogonalEdgeStyle;rounded=0;orthogonalLoop=1;jettySize=auto;html=1;exitX=1;exitY=0;exitDx=0;exitDy=0;entryX=0;entryY=1;entryDx=0;entryDy=0;" parent="1" source="VP45HoDdZ3DlmeeXuL-M-8" edge="1">
          <mxGeometry relative="1" as="geometry">
            <Array as="points">
              <mxPoint x="1500" y="250" />
              <mxPoint x="1500" y="250" />
            </Array>
            <mxPoint x="1520" y="250" as="targetPoint" />
          </mxGeometry>
        </mxCell>
        <UserObject label="Open Input Excel" link="data:page/id,LwB7HcUF0HROy8n9pEqa" id="VP45HoDdZ3DlmeeXuL-M-8">
          <mxCell style="rounded=0;whiteSpace=wrap;html=1;fillColor=#dae8fc;strokeColor=#6c8ebf;fontStyle=1;fontColor=#000000;" parent="1" vertex="1">
            <mxGeometry x="1330" y="250" width="120" height="60" as="geometry" />
          </mxCell>
        </UserObject>
        <mxCell id="VP45HoDdZ3DlmeeXuL-M-9" value="Excel" style="rounded=0;whiteSpace=wrap;html=1;strokeColor=#0e8088;fontStyle=1;fillColor=#b0e3e6;fontColor=#000000;" parent="1" vertex="1">
          <mxGeometry x="1330" y="210" width="120" height="40" as="geometry" />
        </mxCell>
        <mxCell id="VP45HoDdZ3DlmeeXuL-M-37" style="edgeStyle=orthogonalEdgeStyle;rounded=0;orthogonalLoop=1;jettySize=auto;html=1;exitX=0.5;exitY=0;exitDx=0;exitDy=0;entryX=0.5;entryY=0;entryDx=0;entryDy=0;" parent="1" source="VP45HoDdZ3DlmeeXuL-M-39" target="4Dz2iFKQ4wbWv29rgHOG-2" edge="1">
          <mxGeometry relative="1" as="geometry">
            <Array as="points">
              <mxPoint x="1955" y="140" />
              <mxPoint x="1580" y="140" />
            </Array>
            <mxPoint x="1580" y="210" as="targetPoint" />
          </mxGeometry>
        </mxCell>
        <mxCell id="VP45HoDdZ3DlmeeXuL-M-38" value="Yes" style="edgeLabel;html=1;align=center;verticalAlign=middle;resizable=0;points=[];" parent="VP45HoDdZ3DlmeeXuL-M-37" vertex="1" connectable="0">
          <mxGeometry x="-0.9889" y="-2" relative="1" as="geometry">
            <mxPoint x="-2" y="-27" as="offset" />
          </mxGeometry>
        </mxCell>
        <mxCell id="gsQAQeVzzw9sSomTowT8-4" style="edgeStyle=orthogonalEdgeStyle;rounded=0;orthogonalLoop=1;jettySize=auto;html=1;exitX=1;exitY=0.5;exitDx=0;exitDy=0;entryX=0;entryY=0.5;entryDx=0;entryDy=0;" parent="1" source="VP45HoDdZ3DlmeeXuL-M-39" target="gsQAQeVzzw9sSomTowT8-3" edge="1">
          <mxGeometry relative="1" as="geometry" />
        </mxCell>
        <mxCell id="gsQAQeVzzw9sSomTowT8-5" value="No" style="edgeLabel;html=1;align=center;verticalAlign=middle;resizable=0;points=[];" parent="gsQAQeVzzw9sSomTowT8-4" vertex="1" connectable="0">
          <mxGeometry x="-0.3993" relative="1" as="geometry">
            <mxPoint x="14" as="offset" />
          </mxGeometry>
        </mxCell>
        <mxCell id="VP45HoDdZ3DlmeeXuL-M-39" value="Is any movie left?" style="rhombus;whiteSpace=wrap;html=1;fillColor=#ffe6cc;strokeColor=#d79b00;fontStyle=1;fontColor=#000000;" parent="1" vertex="1">
          <mxGeometry x="1910" y="199.97999999999996" width="90" height="100" as="geometry" />
        </mxCell>
        <mxCell id="VP45HoDdZ3DlmeeXuL-M-72" style="edgeStyle=orthogonalEdgeStyle;rounded=0;orthogonalLoop=1;jettySize=auto;html=1;exitX=1;exitY=1;exitDx=0;exitDy=0;entryX=0;entryY=0.5;entryDx=0;entryDy=0;" parent="1" target="VP45HoDdZ3DlmeeXuL-M-39" edge="1">
          <mxGeometry relative="1" as="geometry">
            <Array as="points">
              <mxPoint x="1860" y="249.98" />
              <mxPoint x="1860" y="249.98" />
            </Array>
            <mxPoint x="1830" y="249.98" as="sourcePoint" />
          </mxGeometry>
        </mxCell>
        <mxCell id="gsQAQeVzzw9sSomTowT8-2" style="edgeStyle=orthogonalEdgeStyle;rounded=0;orthogonalLoop=1;jettySize=auto;html=1;exitX=1;exitY=0.5;exitDx=0;exitDy=0;entryX=0;entryY=0;entryDx=0;entryDy=0;" parent="1" source="gsQAQeVzzw9sSomTowT8-1" target="VP45HoDdZ3DlmeeXuL-M-8" edge="1">
          <mxGeometry relative="1" as="geometry">
            <Array as="points">
              <mxPoint x="1310" y="250" />
              <mxPoint x="1310" y="250" />
            </Array>
          </mxGeometry>
        </mxCell>
        <mxCell id="gsQAQeVzzw9sSomTowT8-1" value="Start" style="ellipse;whiteSpace=wrap;html=1;aspect=fixed;fontStyle=1;fillColor=#fff2cc;strokeColor=#d6b656;fontColor=#000000;" parent="1" vertex="1">
          <mxGeometry x="1180" y="209.98000000000002" width="80" height="80" as="geometry" />
        </mxCell>
        <mxCell id="gsQAQeVzzw9sSomTowT8-3" value="End" style="ellipse;whiteSpace=wrap;html=1;aspect=fixed;fillColor=#fff2cc;strokeColor=#d6b656;fontStyle=1;fontColor=#000000;" parent="1" vertex="1">
          <mxGeometry x="2085" y="210.26" width="80" height="80" as="geometry" />
        </mxCell>
        <UserObject label="Rating Movies" link="data:page/id,G2yw7vqBVShzXL4JyDqV" id="4Dz2iFKQ4wbWv29rgHOG-2">
          <mxCell style="shape=process;whiteSpace=wrap;html=1;backgroundOutline=1;fillColor=#dae8fc;strokeColor=#6c8ebf;fontStyle=1;fontColor=#000000;" parent="1" vertex="1">
            <mxGeometry x="1520" y="220.26" width="120" height="60" as="geometry" />
          </mxCell>
        </UserObject>
        <UserObject label="Movies Data Extraction" link="data:page/id,KCFuyiYiETjFHdAJb5N4" id="QajtRxbyDY2prwaeflIt-1">
          <mxCell style="shape=process;whiteSpace=wrap;html=1;backgroundOutline=1;fillColor=#dae8fc;strokeColor=#6c8ebf;fontStyle=1;fontColor=#000000;" parent="1" vertex="1">
            <mxGeometry x="1720" y="219.97999999999996" width="120" height="60" as="geometry" />
          </mxCell>
        </UserObject>
      </root>
    </mxGraphModel>
  </diagram>
  <diagram id="G2yw7vqBVShzXL4JyDqV" name="RatingMovies">
    <mxGraphModel dx="164" dy="570" grid="1" gridSize="10" guides="1" tooltips="1" connect="1" arrows="1" fold="1" page="1" pageScale="1" pageWidth="850" pageHeight="1100" math="0" shadow="0">
      <root>
        <mxCell id="0" />
        <mxCell id="1" parent="0" />
        <mxCell id="bMUDOzEBntZzZ_MYtkMn-1" value="Extract movie name" style="rounded=0;whiteSpace=wrap;html=1;fillColor=#dae8fc;strokeColor=#6c8ebf;fontStyle=1;fontColor=#000000;" vertex="1" parent="1">
          <mxGeometry x="1690" y="250" width="120" height="60" as="geometry" />
        </mxCell>
        <mxCell id="bMUDOzEBntZzZ_MYtkMn-2" style="edgeStyle=orthogonalEdgeStyle;rounded=0;orthogonalLoop=1;jettySize=auto;html=1;exitX=1;exitY=1;exitDx=0;exitDy=0;entryX=0;entryY=0;entryDx=0;entryDy=0;" edge="1" parent="1" source="bMUDOzEBntZzZ_MYtkMn-3" target="bMUDOzEBntZzZ_MYtkMn-7">
          <mxGeometry relative="1" as="geometry">
            <Array as="points">
              <mxPoint x="1870" y="250" />
              <mxPoint x="1870" y="250" />
            </Array>
          </mxGeometry>
        </mxCell>
        <mxCell id="bMUDOzEBntZzZ_MYtkMn-3" value="Excel" style="rounded=0;whiteSpace=wrap;html=1;strokeColor=#0e8088;fontStyle=1;fillColor=#b0e3e6;fontColor=#000000;" vertex="1" parent="1">
          <mxGeometry x="1690" y="210" width="120" height="40" as="geometry" />
        </mxCell>
        <mxCell id="Us807GI0o7iv0p2xQ-bm-4" style="edgeStyle=orthogonalEdgeStyle;rounded=0;orthogonalLoop=1;jettySize=auto;html=1;exitX=1;exitY=0;exitDx=0;exitDy=0;entryX=0;entryY=0.5;entryDx=0;entryDy=0;" edge="1" parent="1" source="bMUDOzEBntZzZ_MYtkMn-4" target="bMUDOzEBntZzZ_MYtkMn-39">
          <mxGeometry relative="1" as="geometry">
            <Array as="points">
              <mxPoint x="2630" y="250" />
              <mxPoint x="2630" y="250" />
            </Array>
          </mxGeometry>
        </mxCell>
        <mxCell id="bMUDOzEBntZzZ_MYtkMn-4" value="Read movie grade" style="rounded=0;whiteSpace=wrap;html=1;fillColor=#dae8fc;strokeColor=#6c8ebf;fontStyle=1;fontColor=#000000;" vertex="1" parent="1">
          <mxGeometry x="2460" y="250" width="120" height="60" as="geometry" />
        </mxCell>
        <mxCell id="bMUDOzEBntZzZ_MYtkMn-6" value="Excel" style="rounded=0;whiteSpace=wrap;html=1;strokeColor=#0e8088;fontStyle=1;fillColor=#b0e3e6;fontColor=#000000;" vertex="1" parent="1">
          <mxGeometry x="2460" y="210" width="120" height="40" as="geometry" />
        </mxCell>
        <mxCell id="bMUDOzEBntZzZ_MYtkMn-7" value="Seach movie by name" style="rounded=0;whiteSpace=wrap;html=1;fillColor=#dae8fc;strokeColor=#6c8ebf;fontStyle=1;fontColor=#000000;" vertex="1" parent="1">
          <mxGeometry x="1890" y="250" width="120" height="60" as="geometry" />
        </mxCell>
        <mxCell id="bMUDOzEBntZzZ_MYtkMn-8" style="edgeStyle=orthogonalEdgeStyle;rounded=0;orthogonalLoop=1;jettySize=auto;html=1;exitX=1;exitY=1;exitDx=0;exitDy=0;entryX=0;entryY=0.5;entryDx=0;entryDy=0;" edge="1" parent="1" source="bMUDOzEBntZzZ_MYtkMn-9" target="bMUDOzEBntZzZ_MYtkMn-35">
          <mxGeometry relative="1" as="geometry">
            <Array as="points">
              <mxPoint x="1880" y="250" />
              <mxPoint x="1880" y="250" />
            </Array>
          </mxGeometry>
        </mxCell>
        <mxCell id="bMUDOzEBntZzZ_MYtkMn-9" value="IMDb" style="rounded=0;whiteSpace=wrap;html=1;strokeColor=#0e8088;fontStyle=1;fillColor=#b0e3e6;fontColor=#000000;" vertex="1" parent="1">
          <mxGeometry x="1890" y="210" width="120" height="40" as="geometry" />
        </mxCell>
        <mxCell id="bMUDOzEBntZzZ_MYtkMn-10" style="edgeStyle=orthogonalEdgeStyle;rounded=0;orthogonalLoop=1;jettySize=auto;html=1;exitX=1;exitY=0;exitDx=0;exitDy=0;entryX=0;entryY=1;entryDx=0;entryDy=0;" edge="1" parent="1" source="bMUDOzEBntZzZ_MYtkMn-11" target="bMUDOzEBntZzZ_MYtkMn-6">
          <mxGeometry relative="1" as="geometry">
            <Array as="points">
              <mxPoint x="2420" y="250" />
              <mxPoint x="2420" y="250" />
            </Array>
          </mxGeometry>
        </mxCell>
        <mxCell id="bMUDOzEBntZzZ_MYtkMn-11" value="Select movie" style="rounded=0;whiteSpace=wrap;html=1;fillColor=#dae8fc;strokeColor=#6c8ebf;fontStyle=1;fontColor=#000000;" vertex="1" parent="1">
          <mxGeometry x="2270" y="250" width="120" height="60" as="geometry" />
        </mxCell>
        <mxCell id="bMUDOzEBntZzZ_MYtkMn-12" value="IMDb" style="rounded=0;whiteSpace=wrap;html=1;strokeColor=#0e8088;fontStyle=1;fillColor=#b0e3e6;fontColor=#000000;" vertex="1" parent="1">
          <mxGeometry x="2270" y="210" width="120" height="40" as="geometry" />
        </mxCell>
        <mxCell id="Us807GI0o7iv0p2xQ-bm-9" style="edgeStyle=orthogonalEdgeStyle;rounded=0;orthogonalLoop=1;jettySize=auto;html=1;exitX=1;exitY=0;exitDx=0;exitDy=0;entryX=0;entryY=0.5;entryDx=0;entryDy=0;" edge="1" parent="1" source="bMUDOzEBntZzZ_MYtkMn-14" target="bMUDOzEBntZzZ_MYtkMn-20">
          <mxGeometry relative="1" as="geometry">
            <Array as="points">
              <mxPoint x="2980" y="250" />
              <mxPoint x="2980" y="250" />
            </Array>
          </mxGeometry>
        </mxCell>
        <mxCell id="bMUDOzEBntZzZ_MYtkMn-14" value="Click on &quot;YOUR RATING&quot;" style="rounded=0;whiteSpace=wrap;html=1;fillColor=#dae8fc;strokeColor=#6c8ebf;fontStyle=1;fontColor=#000000;" vertex="1" parent="1">
          <mxGeometry x="2840" y="250" width="120" height="60" as="geometry" />
        </mxCell>
        <mxCell id="Us807GI0o7iv0p2xQ-bm-5" style="edgeStyle=orthogonalEdgeStyle;rounded=0;orthogonalLoop=1;jettySize=auto;html=1;exitX=0;exitY=1;exitDx=0;exitDy=0;" edge="1" parent="1" source="bMUDOzEBntZzZ_MYtkMn-15">
          <mxGeometry relative="1" as="geometry">
            <mxPoint x="2840" y="250.33333333333337" as="targetPoint" />
          </mxGeometry>
        </mxCell>
        <mxCell id="bMUDOzEBntZzZ_MYtkMn-15" value="IMDb" style="rounded=0;whiteSpace=wrap;html=1;strokeColor=#0e8088;fontStyle=1;fillColor=#b0e3e6;fontColor=#000000;" vertex="1" parent="1">
          <mxGeometry x="2840" y="210" width="120" height="40" as="geometry" />
        </mxCell>
        <mxCell id="Us807GI0o7iv0p2xQ-bm-2" style="edgeStyle=orthogonalEdgeStyle;rounded=0;orthogonalLoop=1;jettySize=auto;html=1;exitX=1;exitY=0.5;exitDx=0;exitDy=0;entryX=0;entryY=0;entryDx=0;entryDy=0;" edge="1" parent="1" source="bMUDOzEBntZzZ_MYtkMn-20" target="bMUDOzEBntZzZ_MYtkMn-24">
          <mxGeometry relative="1" as="geometry">
            <Array as="points">
              <mxPoint x="3270" y="250" />
              <mxPoint x="3270" y="250" />
            </Array>
          </mxGeometry>
        </mxCell>
        <mxCell id="Us807GI0o7iv0p2xQ-bm-3" value="No" style="edgeLabel;html=1;align=center;verticalAlign=middle;resizable=0;points=[];" vertex="1" connectable="0" parent="Us807GI0o7iv0p2xQ-bm-2">
          <mxGeometry x="-0.1843" y="-1" relative="1" as="geometry">
            <mxPoint x="13" y="-1" as="offset" />
          </mxGeometry>
        </mxCell>
        <mxCell id="Us807GI0o7iv0p2xQ-bm-10" style="edgeStyle=orthogonalEdgeStyle;rounded=0;orthogonalLoop=1;jettySize=auto;html=1;exitX=0.5;exitY=1;exitDx=0;exitDy=0;entryX=0.5;entryY=0;entryDx=0;entryDy=0;" edge="1" parent="1" source="bMUDOzEBntZzZ_MYtkMn-20" target="bMUDOzEBntZzZ_MYtkMn-23">
          <mxGeometry relative="1" as="geometry" />
        </mxCell>
        <mxCell id="Us807GI0o7iv0p2xQ-bm-11" value="Yes" style="edgeLabel;html=1;align=center;verticalAlign=middle;resizable=0;points=[];" vertex="1" connectable="0" parent="Us807GI0o7iv0p2xQ-bm-10">
          <mxGeometry x="-0.1959" y="-4" relative="1" as="geometry">
            <mxPoint x="4" y="-2" as="offset" />
          </mxGeometry>
        </mxCell>
        <mxCell id="bMUDOzEBntZzZ_MYtkMn-20" value="Is the movie rated?" style="rhombus;whiteSpace=wrap;html=1;fillColor=#ffe6cc;strokeColor=#d79b00;fontStyle=1;fontColor=#000000;" vertex="1" parent="1">
          <mxGeometry x="3010" y="200" width="100" height="100" as="geometry" />
        </mxCell>
        <mxCell id="bMUDOzEBntZzZ_MYtkMn-21" style="edgeStyle=orthogonalEdgeStyle;rounded=0;orthogonalLoop=1;jettySize=auto;html=1;exitX=1;exitY=0;exitDx=0;exitDy=0;entryX=0;entryY=1;entryDx=0;entryDy=0;" edge="1" parent="1" source="bMUDOzEBntZzZ_MYtkMn-22" target="bMUDOzEBntZzZ_MYtkMn-32">
          <mxGeometry relative="1" as="geometry">
            <Array as="points">
              <mxPoint x="3140" y="395" />
              <mxPoint x="3140" y="395" />
            </Array>
          </mxGeometry>
        </mxCell>
        <mxCell id="bMUDOzEBntZzZ_MYtkMn-22" value="Click on &quot;Remove rating&quot;" style="rounded=0;whiteSpace=wrap;html=1;fillColor=#dae8fc;strokeColor=#6c8ebf;fontStyle=1;fontColor=#000000;" vertex="1" parent="1">
          <mxGeometry x="3000" y="395" width="120" height="60" as="geometry" />
        </mxCell>
        <mxCell id="bMUDOzEBntZzZ_MYtkMn-23" value="IMDb" style="rounded=0;whiteSpace=wrap;html=1;strokeColor=#0e8088;fontStyle=1;fillColor=#b0e3e6;fontColor=#000000;" vertex="1" parent="1">
          <mxGeometry x="3000" y="355" width="120" height="40" as="geometry" />
        </mxCell>
        <mxCell id="Us807GI0o7iv0p2xQ-bm-12" style="edgeStyle=orthogonalEdgeStyle;rounded=0;orthogonalLoop=1;jettySize=auto;html=1;exitX=1;exitY=0;exitDx=0;exitDy=0;entryX=0;entryY=0;entryDx=0;entryDy=0;" edge="1" parent="1" source="bMUDOzEBntZzZ_MYtkMn-24" target="bMUDOzEBntZzZ_MYtkMn-28">
          <mxGeometry relative="1" as="geometry">
            <Array as="points">
              <mxPoint x="3470" y="250" />
              <mxPoint x="3470" y="250" />
            </Array>
          </mxGeometry>
        </mxCell>
        <mxCell id="bMUDOzEBntZzZ_MYtkMn-24" value="Choose rating" style="rounded=0;whiteSpace=wrap;html=1;fillColor=#dae8fc;strokeColor=#6c8ebf;fontStyle=1;fontColor=#000000;" vertex="1" parent="1">
          <mxGeometry x="3300" y="250" width="120" height="60" as="geometry" />
        </mxCell>
        <mxCell id="bMUDOzEBntZzZ_MYtkMn-26" value="IMDb" style="rounded=0;whiteSpace=wrap;html=1;strokeColor=#0e8088;fontStyle=1;fillColor=#b0e3e6;fontColor=#000000;" vertex="1" parent="1">
          <mxGeometry x="3300" y="210" width="120" height="40" as="geometry" />
        </mxCell>
        <mxCell id="bMUDOzEBntZzZ_MYtkMn-28" value="Click on &quot;Rate&quot;" style="rounded=0;whiteSpace=wrap;html=1;fillColor=#dae8fc;strokeColor=#6c8ebf;fontStyle=1;fontColor=#000000;" vertex="1" parent="1">
          <mxGeometry x="3490" y="250" width="120" height="60" as="geometry" />
        </mxCell>
        <mxCell id="Us807GI0o7iv0p2xQ-bm-13" style="edgeStyle=orthogonalEdgeStyle;rounded=0;orthogonalLoop=1;jettySize=auto;html=1;exitX=1;exitY=1;exitDx=0;exitDy=0;entryX=0;entryY=0.5;entryDx=0;entryDy=0;" edge="1" parent="1" source="bMUDOzEBntZzZ_MYtkMn-29" target="bMUDOzEBntZzZ_MYtkMn-46">
          <mxGeometry relative="1" as="geometry">
            <Array as="points">
              <mxPoint x="3700" y="250" />
            </Array>
          </mxGeometry>
        </mxCell>
        <mxCell id="bMUDOzEBntZzZ_MYtkMn-29" value="IMDb" style="rounded=0;whiteSpace=wrap;html=1;strokeColor=#0e8088;fontStyle=1;fillColor=#b0e3e6;fontColor=#000000;" vertex="1" parent="1">
          <mxGeometry x="3490" y="210" width="120" height="40" as="geometry" />
        </mxCell>
        <mxCell id="bMUDOzEBntZzZ_MYtkMn-30" value="Click on &quot;YOUR RATING&quot;" style="rounded=0;whiteSpace=wrap;html=1;fillColor=#dae8fc;strokeColor=#6c8ebf;fontStyle=1;fontColor=#000000;" vertex="1" parent="1">
          <mxGeometry x="3170" y="395" width="120" height="60" as="geometry" />
        </mxCell>
        <mxCell id="bMUDOzEBntZzZ_MYtkMn-32" value="IMDb" style="rounded=0;whiteSpace=wrap;html=1;strokeColor=#0e8088;fontStyle=1;fillColor=#b0e3e6;fontColor=#000000;" vertex="1" parent="1">
          <mxGeometry x="3170" y="355" width="120" height="40" as="geometry" />
        </mxCell>
        <mxCell id="bMUDOzEBntZzZ_MYtkMn-33" style="edgeStyle=orthogonalEdgeStyle;rounded=0;orthogonalLoop=1;jettySize=auto;html=1;exitX=1;exitY=0.5;exitDx=0;exitDy=0;entryX=0;entryY=0;entryDx=0;entryDy=0;" edge="1" parent="1" source="bMUDOzEBntZzZ_MYtkMn-35" target="bMUDOzEBntZzZ_MYtkMn-11">
          <mxGeometry relative="1" as="geometry">
            <Array as="points">
              <mxPoint x="2230" y="250" />
              <mxPoint x="2230" y="250" />
            </Array>
          </mxGeometry>
        </mxCell>
        <mxCell id="bMUDOzEBntZzZ_MYtkMn-34" value="Yes" style="edgeLabel;html=1;align=center;verticalAlign=middle;resizable=0;points=[];" vertex="1" connectable="0" parent="bMUDOzEBntZzZ_MYtkMn-33">
          <mxGeometry x="-0.038" y="4" relative="1" as="geometry">
            <mxPoint y="4" as="offset" />
          </mxGeometry>
        </mxCell>
        <mxCell id="sVlGYo_1O2IXoXy2_-hi-4" style="edgeStyle=orthogonalEdgeStyle;rounded=0;orthogonalLoop=1;jettySize=auto;html=1;exitX=0.5;exitY=1;exitDx=0;exitDy=0;entryX=0;entryY=0.5;entryDx=0;entryDy=0;" edge="1" parent="1" source="bMUDOzEBntZzZ_MYtkMn-35" target="sVlGYo_1O2IXoXy2_-hi-1">
          <mxGeometry relative="1" as="geometry" />
        </mxCell>
        <mxCell id="bMUDOzEBntZzZ_MYtkMn-35" value="Does the movie exist?" style="rhombus;whiteSpace=wrap;html=1;fillColor=#ffe6cc;strokeColor=#d79b00;fontStyle=1;fontColor=#000000;" vertex="1" parent="1">
          <mxGeometry x="2080" y="195" width="90" height="110" as="geometry" />
        </mxCell>
        <mxCell id="bMUDOzEBntZzZ_MYtkMn-36" style="edgeStyle=orthogonalEdgeStyle;rounded=0;orthogonalLoop=1;jettySize=auto;html=1;exitX=0.5;exitY=1;exitDx=0;exitDy=0;entryX=0.278;entryY=0.979;entryDx=0;entryDy=0;entryPerimeter=0;" edge="1" parent="1" source="bMUDOzEBntZzZ_MYtkMn-39" target="bMUDOzEBntZzZ_MYtkMn-46">
          <mxGeometry relative="1" as="geometry">
            <mxPoint x="3841.72" y="312.14" as="targetPoint" />
            <Array as="points">
              <mxPoint x="2703" y="490" />
              <mxPoint x="3722" y="490" />
            </Array>
          </mxGeometry>
        </mxCell>
        <mxCell id="bMUDOzEBntZzZ_MYtkMn-37" value="No" style="edgeLabel;html=1;align=center;verticalAlign=middle;resizable=0;points=[];" vertex="1" connectable="0" parent="bMUDOzEBntZzZ_MYtkMn-36">
          <mxGeometry x="-0.9257" y="1" relative="1" as="geometry">
            <mxPoint as="offset" />
          </mxGeometry>
        </mxCell>
        <mxCell id="Us807GI0o7iv0p2xQ-bm-6" style="edgeStyle=orthogonalEdgeStyle;rounded=0;orthogonalLoop=1;jettySize=auto;html=1;exitX=1;exitY=0.5;exitDx=0;exitDy=0;entryX=0;entryY=0;entryDx=0;entryDy=0;" edge="1" parent="1" source="bMUDOzEBntZzZ_MYtkMn-39" target="bMUDOzEBntZzZ_MYtkMn-14">
          <mxGeometry relative="1" as="geometry">
            <Array as="points">
              <mxPoint x="2820" y="250" />
              <mxPoint x="2820" y="250" />
            </Array>
          </mxGeometry>
        </mxCell>
        <mxCell id="Us807GI0o7iv0p2xQ-bm-7" value="Yes" style="edgeLabel;html=1;align=center;verticalAlign=middle;resizable=0;points=[];" vertex="1" connectable="0" parent="Us807GI0o7iv0p2xQ-bm-6">
          <mxGeometry x="-0.1176" relative="1" as="geometry">
            <mxPoint as="offset" />
          </mxGeometry>
        </mxCell>
        <mxCell id="sVlGYo_1O2IXoXy2_-hi-8" style="edgeStyle=orthogonalEdgeStyle;rounded=0;orthogonalLoop=1;jettySize=auto;html=1;exitX=0.5;exitY=1;exitDx=0;exitDy=0;entryX=0;entryY=0.5;entryDx=0;entryDy=0;" edge="1" parent="1" source="bMUDOzEBntZzZ_MYtkMn-39" target="sVlGYo_1O2IXoXy2_-hi-5">
          <mxGeometry relative="1" as="geometry" />
        </mxCell>
        <mxCell id="sVlGYo_1O2IXoXy2_-hi-9" value="No" style="edgeLabel;html=1;align=center;verticalAlign=middle;resizable=0;points=[];" vertex="1" connectable="0" parent="sVlGYo_1O2IXoXy2_-hi-8">
          <mxGeometry x="-0.6018" y="2" relative="1" as="geometry">
            <mxPoint as="offset" />
          </mxGeometry>
        </mxCell>
        <mxCell id="bMUDOzEBntZzZ_MYtkMn-39" value="Does the grade exist?" style="rhombus;whiteSpace=wrap;html=1;fillColor=#ffe6cc;strokeColor=#d79b00;fontStyle=1;fontColor=#000000;" vertex="1" parent="1">
          <mxGeometry x="2650" y="192.5" width="105" height="115" as="geometry" />
        </mxCell>
        <mxCell id="bMUDOzEBntZzZ_MYtkMn-42" style="edgeStyle=orthogonalEdgeStyle;rounded=0;orthogonalLoop=1;jettySize=auto;html=1;exitX=0.5;exitY=1;exitDx=0;exitDy=0;entryX=0.617;entryY=1.018;entryDx=0;entryDy=0;entryPerimeter=0;" edge="1" parent="1" source="bMUDOzEBntZzZ_MYtkMn-35" target="bMUDOzEBntZzZ_MYtkMn-46">
          <mxGeometry relative="1" as="geometry">
            <mxPoint x="2040" y="322.5" as="sourcePoint" />
            <mxPoint x="3926" y="310" as="targetPoint" />
            <Array as="points">
              <mxPoint x="2125" y="590" />
              <mxPoint x="3749" y="590" />
            </Array>
          </mxGeometry>
        </mxCell>
        <mxCell id="bMUDOzEBntZzZ_MYtkMn-43" value="No" style="edgeLabel;html=1;align=center;verticalAlign=middle;resizable=0;points=[];" vertex="1" connectable="0" parent="bMUDOzEBntZzZ_MYtkMn-42">
          <mxGeometry x="-0.9073" y="-1" relative="1" as="geometry">
            <mxPoint x="1" y="-47" as="offset" />
          </mxGeometry>
        </mxCell>
        <mxCell id="bMUDOzEBntZzZ_MYtkMn-45" style="edgeStyle=orthogonalEdgeStyle;rounded=0;orthogonalLoop=1;jettySize=auto;html=1;exitX=1;exitY=0.5;exitDx=0;exitDy=0;entryX=0;entryY=0;entryDx=0;entryDy=0;" edge="1" parent="1" source="bMUDOzEBntZzZ_MYtkMn-44" target="bMUDOzEBntZzZ_MYtkMn-1">
          <mxGeometry relative="1" as="geometry">
            <Array as="points">
              <mxPoint x="1630" y="250" />
              <mxPoint x="1630" y="250" />
            </Array>
          </mxGeometry>
        </mxCell>
        <mxCell id="bMUDOzEBntZzZ_MYtkMn-44" value="Start" style="ellipse;whiteSpace=wrap;html=1;aspect=fixed;fontStyle=1;fillColor=#fff2cc;strokeColor=#d6b656;fontColor=#000000;" vertex="1" parent="1">
          <mxGeometry x="1530" y="210" width="80" height="80" as="geometry" />
        </mxCell>
        <mxCell id="bMUDOzEBntZzZ_MYtkMn-46" value="End" style="ellipse;whiteSpace=wrap;html=1;aspect=fixed;fillColor=#fff2cc;strokeColor=#d6b656;fontStyle=1;fontColor=#000000;" vertex="1" parent="1">
          <mxGeometry x="3700" y="210" width="80" height="80" as="geometry" />
        </mxCell>
        <mxCell id="vthOTnHyKAqOBnY7I-pt-2" value="Input: MovieName" style="rounded=0;whiteSpace=wrap;html=1;fillColor=#d5e8d4;strokeColor=#82b366;fontStyle=1;fontColor=#000000;" vertex="1" parent="1">
          <mxGeometry x="1890" y="310" width="120" height="40" as="geometry" />
        </mxCell>
        <mxCell id="vthOTnHyKAqOBnY7I-pt-6" value="Output: MovieName" style="rounded=0;whiteSpace=wrap;html=1;fillColor=#e1d5e7;strokeColor=#9673a6;fontStyle=1;fontColor=#000000;" vertex="1" parent="1">
          <mxGeometry x="1690" y="310" width="120" height="40" as="geometry" />
        </mxCell>
        <mxCell id="vthOTnHyKAqOBnY7I-pt-8" value="Output: MovieGrade" style="rounded=0;whiteSpace=wrap;html=1;fillColor=#e1d5e7;strokeColor=#9673a6;fontStyle=1;fontColor=#000000;" vertex="1" parent="1">
          <mxGeometry x="2460" y="310" width="120" height="40" as="geometry" />
        </mxCell>
        <mxCell id="vthOTnHyKAqOBnY7I-pt-11" value="" style="edgeStyle=orthogonalEdgeStyle;rounded=0;orthogonalLoop=1;jettySize=auto;html=1;exitX=1;exitY=1;exitDx=0;exitDy=0;entryX=0.5;entryY=1;entryDx=0;entryDy=0;" edge="1" parent="1" source="bMUDOzEBntZzZ_MYtkMn-32" target="vthOTnHyKAqOBnY7I-pt-10">
          <mxGeometry relative="1" as="geometry">
            <Array as="points">
              <mxPoint x="3360" y="395" />
            </Array>
            <mxPoint x="3310" y="395" as="sourcePoint" />
            <mxPoint x="3360" y="310" as="targetPoint" />
          </mxGeometry>
        </mxCell>
        <mxCell id="vthOTnHyKAqOBnY7I-pt-10" value="Input: MovieGrade" style="rounded=0;whiteSpace=wrap;html=1;fillColor=#d5e8d4;strokeColor=#82b366;fontStyle=1;fontColor=#000000;" vertex="1" parent="1">
          <mxGeometry x="3300" y="310" width="120" height="40" as="geometry" />
        </mxCell>
        <mxCell id="sVlGYo_1O2IXoXy2_-hi-1" value="Store the BE" style="rounded=0;whiteSpace=wrap;html=1;fillColor=#dae8fc;strokeColor=#6c8ebf;fontStyle=1;fontColor=#000000;" vertex="1" parent="1">
          <mxGeometry x="2280" y="560" width="120" height="60" as="geometry" />
        </mxCell>
        <mxCell id="sVlGYo_1O2IXoXy2_-hi-2" value="Output: BE" style="rounded=0;whiteSpace=wrap;html=1;fillColor=#e1d5e7;strokeColor=#9673a6;fontStyle=1;fontColor=#000000;" vertex="1" parent="1">
          <mxGeometry x="2280" y="620" width="120" height="40" as="geometry" />
        </mxCell>
        <mxCell id="sVlGYo_1O2IXoXy2_-hi-3" value="System" style="rounded=0;whiteSpace=wrap;html=1;strokeColor=#0e8088;fontStyle=1;fillColor=#b0e3e6;fontColor=#000000;" vertex="1" parent="1">
          <mxGeometry x="2280" y="520" width="120" height="40" as="geometry" />
        </mxCell>
        <mxCell id="sVlGYo_1O2IXoXy2_-hi-5" value="Store the BE" style="rounded=0;whiteSpace=wrap;html=1;fillColor=#dae8fc;strokeColor=#6c8ebf;fontStyle=1;fontColor=#000000;" vertex="1" parent="1">
          <mxGeometry x="2780" y="460" width="120" height="60" as="geometry" />
        </mxCell>
        <mxCell id="sVlGYo_1O2IXoXy2_-hi-6" value="Output: BE" style="rounded=0;whiteSpace=wrap;html=1;fillColor=#e1d5e7;strokeColor=#9673a6;fontStyle=1;fontColor=#000000;" vertex="1" parent="1">
          <mxGeometry x="2780" y="520" width="120" height="40" as="geometry" />
        </mxCell>
        <mxCell id="sVlGYo_1O2IXoXy2_-hi-7" value="System" style="rounded=0;whiteSpace=wrap;html=1;strokeColor=#0e8088;fontStyle=1;fillColor=#b0e3e6;fontColor=#000000;" vertex="1" parent="1">
          <mxGeometry x="2780" y="420" width="120" height="40" as="geometry" />
        </mxCell>
      </root>
    </mxGraphModel>
  </diagram>
  <diagram id="KCFuyiYiETjFHdAJb5N4" name="MoviesDataExtraction">
    <mxGraphModel dx="-2326" dy="604" grid="1" gridSize="10" guides="1" tooltips="1" connect="1" arrows="1" fold="1" page="1" pageScale="1" pageWidth="850" pageHeight="1100" math="0" shadow="0">
      <root>
        <mxCell id="0" />
        <mxCell id="1" parent="0" />
        <mxCell id="s8pPjrizOmTRG46WWb6f-4" style="edgeStyle=orthogonalEdgeStyle;rounded=0;orthogonalLoop=1;jettySize=auto;html=1;exitX=1;exitY=0;exitDx=0;exitDy=0;entryX=0;entryY=1;entryDx=0;entryDy=0;" edge="1" parent="1" source="s8pPjrizOmTRG46WWb6f-5" target="s8pPjrizOmTRG46WWb6f-9">
          <mxGeometry relative="1" as="geometry">
            <Array as="points">
              <mxPoint x="4020" y="250" />
              <mxPoint x="4020" y="250" />
            </Array>
          </mxGeometry>
        </mxCell>
        <mxCell id="s8pPjrizOmTRG46WWb6f-5" value="Open Output Excel" style="rounded=0;whiteSpace=wrap;html=1;fillColor=#dae8fc;strokeColor=#6c8ebf;fontStyle=1;fontColor=#000000;" vertex="1" parent="1">
          <mxGeometry x="3850" y="250" width="120" height="60" as="geometry" />
        </mxCell>
        <mxCell id="s8pPjrizOmTRG46WWb6f-6" value="Excel" style="rounded=0;whiteSpace=wrap;html=1;strokeColor=#0e8088;fontStyle=1;fillColor=#b0e3e6;fontColor=#000000;" vertex="1" parent="1">
          <mxGeometry x="3850" y="212.5" width="120" height="40" as="geometry" />
        </mxCell>
        <mxCell id="s8pPjrizOmTRG46WWb6f-7" style="edgeStyle=orthogonalEdgeStyle;rounded=0;orthogonalLoop=1;jettySize=auto;html=1;exitX=1;exitY=0;exitDx=0;exitDy=0;entryX=0;entryY=0.5;entryDx=0;entryDy=0;" edge="1" parent="1" source="s8pPjrizOmTRG46WWb6f-8" target="s8pPjrizOmTRG46WWb6f-35">
          <mxGeometry relative="1" as="geometry">
            <Array as="points">
              <mxPoint x="4180" y="250" />
              <mxPoint x="4180" y="250" />
            </Array>
          </mxGeometry>
        </mxCell>
        <mxCell id="s8pPjrizOmTRG46WWb6f-8" value="Write movie name" style="rounded=0;whiteSpace=wrap;html=1;fillColor=#dae8fc;strokeColor=#6c8ebf;fontStyle=1;fontColor=#000000;" vertex="1" parent="1">
          <mxGeometry x="4040" y="250" width="120" height="60" as="geometry" />
        </mxCell>
        <mxCell id="s8pPjrizOmTRG46WWb6f-9" value="Excel" style="rounded=0;whiteSpace=wrap;html=1;strokeColor=#0e8088;fontStyle=1;fillColor=#b0e3e6;fontColor=#000000;" vertex="1" parent="1">
          <mxGeometry x="4040" y="210" width="120" height="40" as="geometry" />
        </mxCell>
        <mxCell id="s8pPjrizOmTRG46WWb6f-10" style="edgeStyle=orthogonalEdgeStyle;rounded=0;orthogonalLoop=1;jettySize=auto;html=1;exitX=1;exitY=0;exitDx=0;exitDy=0;entryX=0;entryY=1;entryDx=0;entryDy=0;" edge="1" parent="1" source="s8pPjrizOmTRG46WWb6f-11" target="s8pPjrizOmTRG46WWb6f-15">
          <mxGeometry relative="1" as="geometry">
            <Array as="points">
              <mxPoint x="4600" y="250" />
              <mxPoint x="4600" y="250" />
            </Array>
          </mxGeometry>
        </mxCell>
        <mxCell id="s8pPjrizOmTRG46WWb6f-11" value="Copy description" style="rounded=0;whiteSpace=wrap;html=1;fillColor=#dae8fc;strokeColor=#6c8ebf;fontStyle=1;fontColor=#000000;" vertex="1" parent="1">
          <mxGeometry x="4450" y="250" width="120" height="60" as="geometry" />
        </mxCell>
        <mxCell id="s8pPjrizOmTRG46WWb6f-12" value="IMDb" style="rounded=0;whiteSpace=wrap;html=1;strokeColor=#0e8088;fontStyle=1;fillColor=#b0e3e6;fontColor=#000000;" vertex="1" parent="1">
          <mxGeometry x="4450" y="210" width="120" height="40" as="geometry" />
        </mxCell>
        <mxCell id="s8pPjrizOmTRG46WWb6f-13" style="edgeStyle=orthogonalEdgeStyle;rounded=0;orthogonalLoop=1;jettySize=auto;html=1;exitX=1;exitY=0;exitDx=0;exitDy=0;entryX=0;entryY=1;entryDx=0;entryDy=0;" edge="1" parent="1" source="s8pPjrizOmTRG46WWb6f-14" target="s8pPjrizOmTRG46WWb6f-18">
          <mxGeometry relative="1" as="geometry">
            <Array as="points">
              <mxPoint x="4840" y="250" />
              <mxPoint x="4840" y="250" />
            </Array>
          </mxGeometry>
        </mxCell>
        <mxCell id="s8pPjrizOmTRG46WWb6f-14" value="Write description" style="rounded=0;whiteSpace=wrap;html=1;fillColor=#dae8fc;strokeColor=#6c8ebf;fontStyle=1;fontColor=#000000;" vertex="1" parent="1">
          <mxGeometry x="4640" y="250" width="120" height="60" as="geometry" />
        </mxCell>
        <mxCell id="s8pPjrizOmTRG46WWb6f-15" value="Excel" style="rounded=0;whiteSpace=wrap;html=1;strokeColor=#0e8088;fontStyle=1;fillColor=#b0e3e6;fontColor=#000000;" vertex="1" parent="1">
          <mxGeometry x="4640" y="210" width="120" height="40" as="geometry" />
        </mxCell>
        <mxCell id="s8pPjrizOmTRG46WWb6f-16" style="edgeStyle=orthogonalEdgeStyle;rounded=0;orthogonalLoop=1;jettySize=auto;html=1;exitX=1;exitY=0;exitDx=0;exitDy=0;entryX=0;entryY=1;entryDx=0;entryDy=0;" edge="1" parent="1" source="s8pPjrizOmTRG46WWb6f-17" target="s8pPjrizOmTRG46WWb6f-21">
          <mxGeometry relative="1" as="geometry">
            <Array as="points">
              <mxPoint x="4980" y="250" />
              <mxPoint x="4980" y="250" />
            </Array>
            <mxPoint x="5000" y="250" as="targetPoint" />
          </mxGeometry>
        </mxCell>
        <mxCell id="s8pPjrizOmTRG46WWb6f-17" value="Copy directors" style="rounded=0;whiteSpace=wrap;html=1;fillColor=#dae8fc;strokeColor=#6c8ebf;fontStyle=1;fontColor=#000000;" vertex="1" parent="1">
          <mxGeometry x="4840" y="250" width="120" height="60" as="geometry" />
        </mxCell>
        <mxCell id="s8pPjrizOmTRG46WWb6f-18" value="IMDb" style="rounded=0;whiteSpace=wrap;html=1;strokeColor=#0e8088;fontStyle=1;fillColor=#b0e3e6;fontColor=#000000;" vertex="1" parent="1">
          <mxGeometry x="4840" y="210" width="120" height="40" as="geometry" />
        </mxCell>
        <mxCell id="s8pPjrizOmTRG46WWb6f-19" style="edgeStyle=orthogonalEdgeStyle;rounded=0;orthogonalLoop=1;jettySize=auto;html=1;exitX=1;exitY=0;exitDx=0;exitDy=0;entryX=0;entryY=1;entryDx=0;entryDy=0;" edge="1" parent="1" source="s8pPjrizOmTRG46WWb6f-20" target="s8pPjrizOmTRG46WWb6f-24">
          <mxGeometry relative="1" as="geometry">
            <Array as="points">
              <mxPoint x="5170" y="250" />
              <mxPoint x="5170" y="250" />
            </Array>
          </mxGeometry>
        </mxCell>
        <mxCell id="s8pPjrizOmTRG46WWb6f-20" value="Write directors" style="rounded=0;whiteSpace=wrap;html=1;fillColor=#dae8fc;strokeColor=#6c8ebf;fontStyle=1;fontColor=#000000;" vertex="1" parent="1">
          <mxGeometry x="5030" y="250" width="120" height="60" as="geometry" />
        </mxCell>
        <mxCell id="s8pPjrizOmTRG46WWb6f-21" value="Excel" style="rounded=0;whiteSpace=wrap;html=1;strokeColor=#0e8088;fontStyle=1;fillColor=#b0e3e6;fontColor=#000000;" vertex="1" parent="1">
          <mxGeometry x="5030" y="210" width="120" height="40" as="geometry" />
        </mxCell>
        <mxCell id="s8pPjrizOmTRG46WWb6f-22" value="Copy writers&amp;nbsp;" style="rounded=0;whiteSpace=wrap;html=1;fillColor=#dae8fc;strokeColor=#6c8ebf;fontStyle=1;fontColor=#000000;" vertex="1" parent="1">
          <mxGeometry x="5220" y="250" width="120" height="60" as="geometry" />
        </mxCell>
        <mxCell id="s8pPjrizOmTRG46WWb6f-23" style="edgeStyle=orthogonalEdgeStyle;rounded=0;orthogonalLoop=1;jettySize=auto;html=1;exitX=1;exitY=1;exitDx=0;exitDy=0;entryX=0;entryY=1;entryDx=0;entryDy=0;" edge="1" parent="1" source="s8pPjrizOmTRG46WWb6f-24" target="s8pPjrizOmTRG46WWb6f-41">
          <mxGeometry relative="1" as="geometry">
            <Array as="points">
              <mxPoint x="5370" y="250" />
              <mxPoint x="5370" y="250" />
            </Array>
          </mxGeometry>
        </mxCell>
        <mxCell id="s8pPjrizOmTRG46WWb6f-24" value="IMDb" style="rounded=0;whiteSpace=wrap;html=1;strokeColor=#0e8088;fontStyle=1;fillColor=#b0e3e6;fontColor=#000000;" vertex="1" parent="1">
          <mxGeometry x="5220" y="210" width="120" height="40" as="geometry" />
        </mxCell>
        <mxCell id="s8pPjrizOmTRG46WWb6f-25" style="edgeStyle=orthogonalEdgeStyle;rounded=0;orthogonalLoop=1;jettySize=auto;html=1;exitX=1;exitY=0;exitDx=0;exitDy=0;entryX=0;entryY=1;entryDx=0;entryDy=0;" edge="1" parent="1" source="s8pPjrizOmTRG46WWb6f-26" target="s8pPjrizOmTRG46WWb6f-30">
          <mxGeometry relative="1" as="geometry">
            <Array as="points">
              <mxPoint x="5770" y="250" />
              <mxPoint x="5770" y="250" />
            </Array>
          </mxGeometry>
        </mxCell>
        <mxCell id="s8pPjrizOmTRG46WWb6f-26" value="Copy stars&amp;nbsp;" style="rounded=0;whiteSpace=wrap;html=1;fillColor=#dae8fc;strokeColor=#6c8ebf;fontStyle=1;fontColor=#000000;" vertex="1" parent="1">
          <mxGeometry x="5600" y="250" width="120" height="60" as="geometry" />
        </mxCell>
        <mxCell id="s8pPjrizOmTRG46WWb6f-27" value="IMDb" style="rounded=0;whiteSpace=wrap;html=1;strokeColor=#0e8088;fontStyle=1;fillColor=#b0e3e6;fontColor=#000000;" vertex="1" parent="1">
          <mxGeometry x="5600" y="210" width="120" height="40" as="geometry" />
        </mxCell>
        <mxCell id="s8pPjrizOmTRG46WWb6f-28" value="Write stars" style="rounded=0;whiteSpace=wrap;html=1;fillColor=#dae8fc;strokeColor=#6c8ebf;fontStyle=1;fontColor=#000000;" vertex="1" parent="1">
          <mxGeometry x="5790" y="250" width="120" height="60" as="geometry" />
        </mxCell>
        <mxCell id="s8pPjrizOmTRG46WWb6f-30" value="Excel" style="rounded=0;whiteSpace=wrap;html=1;strokeColor=#0e8088;fontStyle=1;fillColor=#b0e3e6;fontColor=#000000;" vertex="1" parent="1">
          <mxGeometry x="5790" y="210" width="120" height="40" as="geometry" />
        </mxCell>
        <mxCell id="s8pPjrizOmTRG46WWb6f-31" style="edgeStyle=orthogonalEdgeStyle;rounded=0;orthogonalLoop=1;jettySize=auto;html=1;exitX=1;exitY=0.5;exitDx=0;exitDy=0;entryX=0;entryY=1;entryDx=0;entryDy=0;" edge="1" parent="1" source="s8pPjrizOmTRG46WWb6f-35" target="s8pPjrizOmTRG46WWb6f-12">
          <mxGeometry relative="1" as="geometry">
            <Array as="points">
              <mxPoint x="4420" y="250" />
              <mxPoint x="4420" y="250" />
            </Array>
          </mxGeometry>
        </mxCell>
        <mxCell id="s8pPjrizOmTRG46WWb6f-32" value="No" style="edgeLabel;html=1;align=center;verticalAlign=middle;resizable=0;points=[];" vertex="1" connectable="0" parent="s8pPjrizOmTRG46WWb6f-31">
          <mxGeometry x="-0.1273" y="-3" relative="1" as="geometry">
            <mxPoint y="-3" as="offset" />
          </mxGeometry>
        </mxCell>
        <mxCell id="s8pPjrizOmTRG46WWb6f-33" style="edgeStyle=orthogonalEdgeStyle;rounded=0;orthogonalLoop=1;jettySize=auto;html=1;exitX=0.5;exitY=1;exitDx=0;exitDy=0;entryX=0;entryY=0;entryDx=0;entryDy=0;" edge="1" parent="1" source="s8pPjrizOmTRG46WWb6f-35" target="s8pPjrizOmTRG46WWb6f-36">
          <mxGeometry relative="1" as="geometry">
            <Array as="points">
              <mxPoint x="4290" y="460" />
            </Array>
          </mxGeometry>
        </mxCell>
        <mxCell id="s8pPjrizOmTRG46WWb6f-34" value="Yes" style="edgeLabel;html=1;align=center;verticalAlign=middle;resizable=0;points=[];" vertex="1" connectable="0" parent="s8pPjrizOmTRG46WWb6f-33">
          <mxGeometry x="-0.6214" y="3" relative="1" as="geometry">
            <mxPoint x="-3" y="3" as="offset" />
          </mxGeometry>
        </mxCell>
        <mxCell id="s8pPjrizOmTRG46WWb6f-35" value="Is there a BE?" style="rhombus;whiteSpace=wrap;html=1;fillColor=#ffe6cc;strokeColor=#d79b00;fontStyle=1;fontColor=#000000;" vertex="1" parent="1">
          <mxGeometry x="4250" y="210.26" width="80" height="80" as="geometry" />
        </mxCell>
        <mxCell id="s8pPjrizOmTRG46WWb6f-36" value="Write BE" style="rounded=0;whiteSpace=wrap;html=1;fillColor=#dae8fc;strokeColor=#6c8ebf;fontStyle=1;fontColor=#000000;" vertex="1" parent="1">
          <mxGeometry x="4450" y="460" width="120" height="60" as="geometry" />
        </mxCell>
        <mxCell id="s8pPjrizOmTRG46WWb6f-37" style="edgeStyle=orthogonalEdgeStyle;rounded=0;orthogonalLoop=1;jettySize=auto;html=1;exitX=1;exitY=1;exitDx=0;exitDy=0;entryX=0.5;entryY=1;entryDx=0;entryDy=0;" edge="1" parent="1" source="s8pPjrizOmTRG46WWb6f-38" target="s8pPjrizOmTRG46WWb6f-44">
          <mxGeometry relative="1" as="geometry">
            <Array as="points">
              <mxPoint x="6030" y="460" />
            </Array>
            <mxPoint x="6305" y="300" as="targetPoint" />
          </mxGeometry>
        </mxCell>
        <mxCell id="s8pPjrizOmTRG46WWb6f-38" value="Excel" style="rounded=0;whiteSpace=wrap;html=1;strokeColor=#0e8088;fontStyle=1;fillColor=#b0e3e6;fontColor=#000000;" vertex="1" parent="1">
          <mxGeometry x="4450" y="420" width="120" height="40" as="geometry" />
        </mxCell>
        <mxCell id="s8pPjrizOmTRG46WWb6f-39" value="Write writers" style="rounded=0;whiteSpace=wrap;html=1;fillColor=#dae8fc;strokeColor=#6c8ebf;fontStyle=1;fontColor=#000000;" vertex="1" parent="1">
          <mxGeometry x="5410" y="250" width="120" height="60" as="geometry" />
        </mxCell>
        <mxCell id="s8pPjrizOmTRG46WWb6f-40" style="edgeStyle=orthogonalEdgeStyle;rounded=0;orthogonalLoop=1;jettySize=auto;html=1;exitX=1;exitY=1;exitDx=0;exitDy=0;entryX=0;entryY=0;entryDx=0;entryDy=0;" edge="1" parent="1" source="s8pPjrizOmTRG46WWb6f-41" target="s8pPjrizOmTRG46WWb6f-26">
          <mxGeometry relative="1" as="geometry">
            <Array as="points">
              <mxPoint x="5560" y="250" />
              <mxPoint x="5560" y="250" />
            </Array>
          </mxGeometry>
        </mxCell>
        <mxCell id="s8pPjrizOmTRG46WWb6f-41" value="Excel" style="rounded=0;whiteSpace=wrap;html=1;strokeColor=#0e8088;fontStyle=1;fillColor=#b0e3e6;fontColor=#000000;" vertex="1" parent="1">
          <mxGeometry x="5410" y="210" width="120" height="40" as="geometry" />
        </mxCell>
        <mxCell id="s8pPjrizOmTRG46WWb6f-43" style="edgeStyle=orthogonalEdgeStyle;rounded=0;orthogonalLoop=1;jettySize=auto;html=1;exitX=1;exitY=0.5;exitDx=0;exitDy=0;entryX=0;entryY=0;entryDx=0;entryDy=0;" edge="1" parent="1" source="s8pPjrizOmTRG46WWb6f-42" target="s8pPjrizOmTRG46WWb6f-5">
          <mxGeometry relative="1" as="geometry">
            <Array as="points">
              <mxPoint x="3780" y="250" />
              <mxPoint x="3780" y="250" />
            </Array>
          </mxGeometry>
        </mxCell>
        <mxCell id="s8pPjrizOmTRG46WWb6f-42" value="Start" style="ellipse;whiteSpace=wrap;html=1;aspect=fixed;fontStyle=1;fillColor=#fff2cc;strokeColor=#d6b656;fontColor=#000000;" vertex="1" parent="1">
          <mxGeometry x="3700" y="210" width="80" height="80" as="geometry" />
        </mxCell>
        <mxCell id="s8pPjrizOmTRG46WWb6f-46" value="" style="edgeStyle=orthogonalEdgeStyle;rounded=0;orthogonalLoop=1;jettySize=auto;html=1;exitX=1;exitY=1;exitDx=0;exitDy=0;entryX=0;entryY=0.5;entryDx=0;entryDy=0;" edge="1" parent="1" source="s8pPjrizOmTRG46WWb6f-30" target="s8pPjrizOmTRG46WWb6f-44">
          <mxGeometry relative="1" as="geometry">
            <Array as="points">
              <mxPoint x="5950" y="250" />
              <mxPoint x="5950" y="250" />
            </Array>
            <mxPoint x="5910" y="250" as="sourcePoint" />
            <mxPoint x="6260" y="250" as="targetPoint" />
          </mxGeometry>
        </mxCell>
        <mxCell id="s8pPjrizOmTRG46WWb6f-44" value="End" style="ellipse;whiteSpace=wrap;html=1;aspect=fixed;fillColor=#fff2cc;strokeColor=#d6b656;fontStyle=1;fontColor=#000000;" vertex="1" parent="1">
          <mxGeometry x="5990" y="210" width="80" height="80" as="geometry" />
        </mxCell>
        <mxCell id="BbeyzzOArM26WzgUrwt0-1" value="Input: MovieName" style="rounded=0;whiteSpace=wrap;html=1;fillColor=#d5e8d4;strokeColor=#82b366;fontStyle=1;fontColor=#000000;" vertex="1" parent="1">
          <mxGeometry x="4040" y="310" width="120" height="40" as="geometry" />
        </mxCell>
        <mxCell id="BbeyzzOArM26WzgUrwt0-2" value="Input: MovieName" style="rounded=0;whiteSpace=wrap;html=1;fillColor=#d5e8d4;strokeColor=#82b366;fontStyle=1;fontColor=#000000;" vertex="1" parent="1">
          <mxGeometry x="4040" y="310" width="120" height="40" as="geometry" />
        </mxCell>
        <mxCell id="BbeyzzOArM26WzgUrwt0-3" value="Input: BE" style="rounded=0;whiteSpace=wrap;html=1;fillColor=#d5e8d4;strokeColor=#82b366;fontStyle=1;fontColor=#000000;" vertex="1" parent="1">
          <mxGeometry x="4450" y="520" width="120" height="40" as="geometry" />
        </mxCell>
        <mxCell id="BbeyzzOArM26WzgUrwt0-4" value="Input: Description" style="rounded=0;whiteSpace=wrap;html=1;fillColor=#d5e8d4;strokeColor=#82b366;fontStyle=1;fontColor=#000000;" vertex="1" parent="1">
          <mxGeometry x="4640" y="310" width="120" height="40" as="geometry" />
        </mxCell>
        <mxCell id="BbeyzzOArM26WzgUrwt0-5" value="Input: Directors" style="rounded=0;whiteSpace=wrap;html=1;fillColor=#d5e8d4;strokeColor=#82b366;fontStyle=1;fontColor=#000000;" vertex="1" parent="1">
          <mxGeometry x="5030" y="310" width="120" height="40" as="geometry" />
        </mxCell>
        <mxCell id="BbeyzzOArM26WzgUrwt0-6" value="Input: Writers" style="rounded=0;whiteSpace=wrap;html=1;fillColor=#d5e8d4;strokeColor=#82b366;fontStyle=1;fontColor=#000000;" vertex="1" parent="1">
          <mxGeometry x="5410" y="310" width="120" height="40" as="geometry" />
        </mxCell>
        <mxCell id="BbeyzzOArM26WzgUrwt0-7" value="Input: Stars" style="rounded=0;whiteSpace=wrap;html=1;fillColor=#d5e8d4;strokeColor=#82b366;fontStyle=1;fontColor=#000000;" vertex="1" parent="1">
          <mxGeometry x="5790" y="310" width="120" height="40" as="geometry" />
        </mxCell>
        <mxCell id="7UneJsXuSGEcrBZ9DV7y-1" value="Output: Description" style="rounded=0;whiteSpace=wrap;html=1;fillColor=#e1d5e7;strokeColor=#9673a6;fontStyle=1;fontColor=#000000;" vertex="1" parent="1">
          <mxGeometry x="4450" y="310" width="120" height="40" as="geometry" />
        </mxCell>
        <mxCell id="7UneJsXuSGEcrBZ9DV7y-2" value="Output: Directors" style="rounded=0;whiteSpace=wrap;html=1;fillColor=#e1d5e7;strokeColor=#9673a6;fontStyle=1;fontColor=#000000;" vertex="1" parent="1">
          <mxGeometry x="4840" y="310" width="120" height="40" as="geometry" />
        </mxCell>
        <mxCell id="7UneJsXuSGEcrBZ9DV7y-3" value="Output: Writers" style="rounded=0;whiteSpace=wrap;html=1;fillColor=#e1d5e7;strokeColor=#9673a6;fontStyle=1;fontColor=#000000;" vertex="1" parent="1">
          <mxGeometry x="5220" y="310" width="120" height="40" as="geometry" />
        </mxCell>
        <mxCell id="7UneJsXuSGEcrBZ9DV7y-4" value="Output: Stars" style="rounded=0;whiteSpace=wrap;html=1;fillColor=#e1d5e7;strokeColor=#9673a6;fontStyle=1;fontColor=#000000;" vertex="1" parent="1">
          <mxGeometry x="5600" y="310" width="120" height="40" as="geometry" />
        </mxCell>
      </root>
    </mxGraphModel>
  </diagram>
  <diagram id="_5FLUUACHcX5O0gPH6xb" name="CloseApplications">
    <mxGraphModel dx="-3136" dy="733" grid="1" gridSize="10" guides="1" tooltips="1" connect="1" arrows="1" fold="1" page="1" pageScale="1" pageWidth="850" pageHeight="1100" math="0" shadow="0">
      <root>
        <mxCell id="0" />
        <mxCell id="1" parent="0" />
        <mxCell id="d1rJyFM7XR_Lo3I2DTF1-1" value="Open Outlook&amp;nbsp;" style="rounded=0;whiteSpace=wrap;html=1;fillColor=#dae8fc;strokeColor=#6c8ebf;fontStyle=1;fontColor=#000000;" parent="1" vertex="1">
          <mxGeometry x="5440" y="240" width="120" height="60" as="geometry" />
        </mxCell>
        <mxCell id="d1rJyFM7XR_Lo3I2DTF1-2" style="edgeStyle=orthogonalEdgeStyle;rounded=0;orthogonalLoop=1;jettySize=auto;html=1;exitX=1;exitY=1;exitDx=0;exitDy=0;entryX=0;entryY=0;entryDx=0;entryDy=0;" parent="1" source="d1rJyFM7XR_Lo3I2DTF1-3" target="d1rJyFM7XR_Lo3I2DTF1-4" edge="1">
          <mxGeometry relative="1" as="geometry">
            <Array as="points">
              <mxPoint x="5580" y="240" />
              <mxPoint x="5580" y="240" />
            </Array>
          </mxGeometry>
        </mxCell>
        <mxCell id="d1rJyFM7XR_Lo3I2DTF1-3" value="Outlook" style="rounded=0;whiteSpace=wrap;html=1;strokeColor=#0e8088;fontStyle=1;fillColor=#b0e3e6;fontColor=#000000;" parent="1" vertex="1">
          <mxGeometry x="5440" y="200" width="120" height="40" as="geometry" />
        </mxCell>
        <mxCell id="d1rJyFM7XR_Lo3I2DTF1-4" value="Click on &quot;New mail&quot; button" style="rounded=0;whiteSpace=wrap;html=1;fillColor=#dae8fc;strokeColor=#6c8ebf;fontStyle=1;fontColor=#000000;" parent="1" vertex="1">
          <mxGeometry x="5620" y="239" width="120" height="60" as="geometry" />
        </mxCell>
        <mxCell id="d1rJyFM7XR_Lo3I2DTF1-5" style="edgeStyle=orthogonalEdgeStyle;rounded=0;orthogonalLoop=1;jettySize=auto;html=1;exitX=1;exitY=1;exitDx=0;exitDy=0;entryX=0;entryY=0;entryDx=0;entryDy=0;" parent="1" source="d1rJyFM7XR_Lo3I2DTF1-6" target="d1rJyFM7XR_Lo3I2DTF1-7" edge="1">
          <mxGeometry relative="1" as="geometry">
            <Array as="points">
              <mxPoint x="5800" y="240" />
              <mxPoint x="5800" y="240" />
            </Array>
          </mxGeometry>
        </mxCell>
        <mxCell id="d1rJyFM7XR_Lo3I2DTF1-6" value="Outlook" style="rounded=0;whiteSpace=wrap;html=1;strokeColor=#0e8088;fontStyle=1;fillColor=#b0e3e6;fontColor=#000000;" parent="1" vertex="1">
          <mxGeometry x="5620" y="199" width="120" height="40" as="geometry" />
        </mxCell>
        <mxCell id="WJQapaI1DKb-gSceNKgJ-10" style="edgeStyle=orthogonalEdgeStyle;rounded=0;orthogonalLoop=1;jettySize=auto;html=1;exitX=1;exitY=0;exitDx=0;exitDy=0;entryX=0;entryY=1;entryDx=0;entryDy=0;" parent="1" source="d1rJyFM7XR_Lo3I2DTF1-7" edge="1">
          <mxGeometry relative="1" as="geometry">
            <Array as="points">
              <mxPoint x="5950" y="239" />
              <mxPoint x="5950" y="239" />
            </Array>
            <mxPoint x="5970" y="239" as="targetPoint" />
          </mxGeometry>
        </mxCell>
        <mxCell id="d1rJyFM7XR_Lo3I2DTF1-7" value="Complete the recipient, subject and message" style="rounded=0;whiteSpace=wrap;html=1;fillColor=#dae8fc;strokeColor=#6c8ebf;fontStyle=1;fontColor=#000000;" parent="1" vertex="1">
          <mxGeometry x="5800" y="239" width="120" height="60" as="geometry" />
        </mxCell>
        <mxCell id="d1rJyFM7XR_Lo3I2DTF1-9" value="Outlook" style="rounded=0;whiteSpace=wrap;html=1;strokeColor=#0e8088;fontStyle=1;fillColor=#b0e3e6;fontColor=#000000;" parent="1" vertex="1">
          <mxGeometry x="5800" y="199" width="120" height="40" as="geometry" />
        </mxCell>
        <mxCell id="d1rJyFM7XR_Lo3I2DTF1-10" value="Attach Output Excel" style="rounded=0;whiteSpace=wrap;html=1;fillColor=#dae8fc;strokeColor=#6c8ebf;fontStyle=1;fontColor=#000000;" parent="1" vertex="1">
          <mxGeometry x="6340" y="240" width="120" height="60" as="geometry" />
        </mxCell>
        <mxCell id="d1rJyFM7XR_Lo3I2DTF1-11" style="edgeStyle=orthogonalEdgeStyle;rounded=0;orthogonalLoop=1;jettySize=auto;html=1;exitX=1;exitY=1;exitDx=0;exitDy=0;entryX=0;entryY=1;entryDx=0;entryDy=0;" parent="1" source="d1rJyFM7XR_Lo3I2DTF1-12" target="d1rJyFM7XR_Lo3I2DTF1-14" edge="1">
          <mxGeometry relative="1" as="geometry">
            <Array as="points">
              <mxPoint x="6460" y="240" />
              <mxPoint x="6460" y="240" />
            </Array>
          </mxGeometry>
        </mxCell>
        <mxCell id="d1rJyFM7XR_Lo3I2DTF1-12" value="Outlook" style="rounded=0;whiteSpace=wrap;html=1;strokeColor=#0e8088;fontStyle=1;fillColor=#b0e3e6;fontColor=#000000;" parent="1" vertex="1">
          <mxGeometry x="6340" y="200" width="120" height="40" as="geometry" />
        </mxCell>
        <mxCell id="d1rJyFM7XR_Lo3I2DTF1-13" value="Click on &quot;Send&quot;" style="rounded=0;whiteSpace=wrap;html=1;fillColor=#dae8fc;strokeColor=#6c8ebf;fontStyle=1;fontColor=#000000;" parent="1" vertex="1">
          <mxGeometry x="6510" y="239" width="120" height="60" as="geometry" />
        </mxCell>
        <mxCell id="d1rJyFM7XR_Lo3I2DTF1-33" style="edgeStyle=orthogonalEdgeStyle;rounded=0;orthogonalLoop=1;jettySize=auto;html=1;exitX=1;exitY=1;exitDx=0;exitDy=0;entryX=0;entryY=1;entryDx=0;entryDy=0;" parent="1" source="d1rJyFM7XR_Lo3I2DTF1-14" target="d1rJyFM7XR_Lo3I2DTF1-32" edge="1">
          <mxGeometry relative="1" as="geometry">
            <Array as="points">
              <mxPoint x="6660" y="240" />
              <mxPoint x="6660" y="240" />
            </Array>
          </mxGeometry>
        </mxCell>
        <mxCell id="d1rJyFM7XR_Lo3I2DTF1-14" value="Outlook" style="rounded=0;whiteSpace=wrap;html=1;strokeColor=#0e8088;fontStyle=1;fillColor=#b0e3e6;fontColor=#000000;" parent="1" vertex="1">
          <mxGeometry x="6510" y="199" width="120" height="40" as="geometry" />
        </mxCell>
        <mxCell id="d1rJyFM7XR_Lo3I2DTF1-15" value="End" style="ellipse;whiteSpace=wrap;html=1;aspect=fixed;fillColor=#fff2cc;strokeColor=#d6b656;fontStyle=1;fontColor=#000000;" parent="1" vertex="1">
          <mxGeometry x="6860" y="200" width="80" height="80" as="geometry" />
        </mxCell>
        <mxCell id="d1rJyFM7XR_Lo3I2DTF1-21" style="edgeStyle=orthogonalEdgeStyle;rounded=0;orthogonalLoop=1;jettySize=auto;html=1;exitX=1;exitY=0.5;exitDx=0;exitDy=0;entryX=0;entryY=1;entryDx=0;entryDy=0;" parent="1" source="d1rJyFM7XR_Lo3I2DTF1-17" target="d1rJyFM7XR_Lo3I2DTF1-20" edge="1">
          <mxGeometry relative="1" as="geometry">
            <Array as="points">
              <mxPoint x="4910" y="239" />
            </Array>
          </mxGeometry>
        </mxCell>
        <mxCell id="d1rJyFM7XR_Lo3I2DTF1-17" value="Start" style="ellipse;whiteSpace=wrap;html=1;aspect=fixed;fontStyle=1;fillColor=#fff2cc;strokeColor=#d6b656;fontColor=#000000;" parent="1" vertex="1">
          <mxGeometry x="4770" y="199" width="80" height="80" as="geometry" />
        </mxCell>
        <mxCell id="d1rJyFM7XR_Lo3I2DTF1-26" style="edgeStyle=orthogonalEdgeStyle;rounded=0;orthogonalLoop=1;jettySize=auto;html=1;exitX=1;exitY=0;exitDx=0;exitDy=0;entryX=0;entryY=0;entryDx=0;entryDy=0;" parent="1" source="d1rJyFM7XR_Lo3I2DTF1-19" target="d1rJyFM7XR_Lo3I2DTF1-22" edge="1">
          <mxGeometry relative="1" as="geometry">
            <Array as="points">
              <mxPoint x="5030" y="238" />
            </Array>
          </mxGeometry>
        </mxCell>
        <mxCell id="d1rJyFM7XR_Lo3I2DTF1-19" value="Close IMDb" style="rounded=0;whiteSpace=wrap;html=1;fillColor=#dae8fc;strokeColor=#6c8ebf;fontStyle=1;fontColor=#000000;" parent="1" vertex="1">
          <mxGeometry x="4910" y="240" width="120" height="60" as="geometry" />
        </mxCell>
        <mxCell id="d1rJyFM7XR_Lo3I2DTF1-20" value="IMDb" style="rounded=0;whiteSpace=wrap;html=1;strokeColor=#0e8088;fontStyle=1;fillColor=#b0e3e6;fontColor=#000000;" parent="1" vertex="1">
          <mxGeometry x="4910" y="200" width="120" height="40" as="geometry" />
        </mxCell>
        <mxCell id="d1rJyFM7XR_Lo3I2DTF1-29" style="edgeStyle=orthogonalEdgeStyle;rounded=0;orthogonalLoop=1;jettySize=auto;html=1;exitX=1;exitY=0;exitDx=0;exitDy=0;entryX=0;entryY=1;entryDx=0;entryDy=0;" parent="1" source="d1rJyFM7XR_Lo3I2DTF1-22" target="d1rJyFM7XR_Lo3I2DTF1-25" edge="1">
          <mxGeometry relative="1" as="geometry">
            <Array as="points">
              <mxPoint x="5210" y="240" />
            </Array>
          </mxGeometry>
        </mxCell>
        <mxCell id="d1rJyFM7XR_Lo3I2DTF1-22" value="Save Output Excel" style="rounded=0;whiteSpace=wrap;html=1;fillColor=#dae8fc;strokeColor=#6c8ebf;fontStyle=1;fontColor=#000000;" parent="1" vertex="1">
          <mxGeometry x="5090" y="239" width="120" height="60" as="geometry" />
        </mxCell>
        <mxCell id="d1rJyFM7XR_Lo3I2DTF1-23" value="Excel" style="rounded=0;whiteSpace=wrap;html=1;strokeColor=#0e8088;fontStyle=1;fillColor=#b0e3e6;fontColor=#000000;" parent="1" vertex="1">
          <mxGeometry x="5090" y="199" width="120" height="40" as="geometry" />
        </mxCell>
        <mxCell id="d1rJyFM7XR_Lo3I2DTF1-30" style="edgeStyle=orthogonalEdgeStyle;rounded=0;orthogonalLoop=1;jettySize=auto;html=1;exitX=1;exitY=0;exitDx=0;exitDy=0;entryX=0;entryY=0;entryDx=0;entryDy=0;" parent="1" source="d1rJyFM7XR_Lo3I2DTF1-24" target="d1rJyFM7XR_Lo3I2DTF1-1" edge="1">
          <mxGeometry relative="1" as="geometry">
            <Array as="points">
              <mxPoint x="5420" y="240" />
              <mxPoint x="5420" y="240" />
            </Array>
          </mxGeometry>
        </mxCell>
        <mxCell id="d1rJyFM7XR_Lo3I2DTF1-24" value="Close Excel" style="rounded=0;whiteSpace=wrap;html=1;fillColor=#dae8fc;strokeColor=#6c8ebf;fontStyle=1;fontColor=#000000;" parent="1" vertex="1">
          <mxGeometry x="5270" y="240" width="120" height="60" as="geometry" />
        </mxCell>
        <mxCell id="d1rJyFM7XR_Lo3I2DTF1-25" value="Excel" style="rounded=0;whiteSpace=wrap;html=1;strokeColor=#0e8088;fontStyle=1;fillColor=#b0e3e6;fontColor=#000000;" parent="1" vertex="1">
          <mxGeometry x="5270" y="200" width="120" height="40" as="geometry" />
        </mxCell>
        <mxCell id="d1rJyFM7XR_Lo3I2DTF1-31" value="Close Outlook" style="rounded=0;whiteSpace=wrap;html=1;fillColor=#dae8fc;strokeColor=#6c8ebf;fontStyle=1;fontColor=#000000;" parent="1" vertex="1">
          <mxGeometry x="6680" y="240" width="120" height="60" as="geometry" />
        </mxCell>
        <mxCell id="d1rJyFM7XR_Lo3I2DTF1-34" style="edgeStyle=orthogonalEdgeStyle;rounded=0;orthogonalLoop=1;jettySize=auto;html=1;exitX=1;exitY=1;exitDx=0;exitDy=0;entryX=0;entryY=0.5;entryDx=0;entryDy=0;" parent="1" source="d1rJyFM7XR_Lo3I2DTF1-32" target="d1rJyFM7XR_Lo3I2DTF1-15" edge="1">
          <mxGeometry relative="1" as="geometry">
            <Array as="points">
              <mxPoint x="6820" y="240" />
              <mxPoint x="6820" y="240" />
            </Array>
          </mxGeometry>
        </mxCell>
        <mxCell id="d1rJyFM7XR_Lo3I2DTF1-32" value="Outlook" style="rounded=0;whiteSpace=wrap;html=1;strokeColor=#0e8088;fontStyle=1;fillColor=#b0e3e6;fontColor=#000000;" parent="1" vertex="1">
          <mxGeometry x="6680" y="200" width="120" height="40" as="geometry" />
        </mxCell>
        <mxCell id="zE42kgKF8LdkPlcizdpJ-1" value="Input: Recipient&lt;div&gt;Subject&lt;/div&gt;&lt;div&gt;Message&lt;/div&gt;" style="rounded=0;whiteSpace=wrap;html=1;fillColor=#d5e8d4;strokeColor=#82b366;fontStyle=1;fontColor=#000000;" parent="1" vertex="1">
          <mxGeometry x="5800" y="299" width="120" height="60" as="geometry" />
        </mxCell>
        <mxCell id="WJQapaI1DKb-gSceNKgJ-11" style="edgeStyle=orthogonalEdgeStyle;rounded=0;orthogonalLoop=1;jettySize=auto;html=1;exitX=1;exitY=0;exitDx=0;exitDy=0;entryX=0;entryY=1;entryDx=0;entryDy=0;" parent="1" source="WJQapaI1DKb-gSceNKgJ-3" target="WJQapaI1DKb-gSceNKgJ-8" edge="1">
          <mxGeometry relative="1" as="geometry">
            <Array as="points">
              <mxPoint x="6110" y="240" />
              <mxPoint x="6110" y="240" />
            </Array>
          </mxGeometry>
        </mxCell>
        <mxCell id="WJQapaI1DKb-gSceNKgJ-3" value="Click on attach icon" style="rounded=0;whiteSpace=wrap;html=1;fillColor=#dae8fc;strokeColor=#6c8ebf;fontStyle=1;fontColor=#000000;" parent="1" vertex="1">
          <mxGeometry x="5970" y="240" width="120" height="60" as="geometry" />
        </mxCell>
        <mxCell id="WJQapaI1DKb-gSceNKgJ-4" value="Outlook" style="rounded=0;whiteSpace=wrap;html=1;strokeColor=#0e8088;fontStyle=1;fillColor=#b0e3e6;fontColor=#000000;" parent="1" vertex="1">
          <mxGeometry x="5970" y="200" width="120" height="40" as="geometry" />
        </mxCell>
        <mxCell id="WJQapaI1DKb-gSceNKgJ-12" style="edgeStyle=orthogonalEdgeStyle;rounded=0;orthogonalLoop=1;jettySize=auto;html=1;exitX=1;exitY=0;exitDx=0;exitDy=0;entryX=0;entryY=1;entryDx=0;entryDy=0;" parent="1" source="WJQapaI1DKb-gSceNKgJ-7" target="d1rJyFM7XR_Lo3I2DTF1-12" edge="1">
          <mxGeometry relative="1" as="geometry">
            <Array as="points">
              <mxPoint x="6310" y="240" />
              <mxPoint x="6310" y="240" />
            </Array>
          </mxGeometry>
        </mxCell>
        <mxCell id="WJQapaI1DKb-gSceNKgJ-7" value="Navigate to the Output Excel path" style="rounded=0;whiteSpace=wrap;html=1;fillColor=#dae8fc;strokeColor=#6c8ebf;fontStyle=1;fontColor=#000000;" parent="1" vertex="1">
          <mxGeometry x="6140" y="240" width="120" height="60" as="geometry" />
        </mxCell>
        <mxCell id="WJQapaI1DKb-gSceNKgJ-8" value="System" style="rounded=0;whiteSpace=wrap;html=1;strokeColor=#0e8088;fontStyle=1;fillColor=#b0e3e6;fontColor=#000000;" parent="1" vertex="1">
          <mxGeometry x="6140" y="200" width="120" height="40" as="geometry" />
        </mxCell>
        <mxCell id="WJQapaI1DKb-gSceNKgJ-9" value="Input: OutputExcelPath" style="rounded=0;whiteSpace=wrap;html=1;fillColor=#d5e8d4;strokeColor=#82b366;fontStyle=1;fontColor=#000000;" parent="1" vertex="1">
          <mxGeometry x="6140" y="301" width="120" height="60" as="geometry" />
        </mxCell>
      </root>
    </mxGraphModel>
  </diagram>
</mxfile>
